<?xml version="1.0" encoding="UTF-8"?>
<svg version="1.1" xmlns="http://www.w3.org/2000/svg" width="2048" height="2048">
<path d="M0 0 C4.19306533 1.86547724 6.11652349 4.54004215 8.5625 8.3125 C8.99232178 8.9712915 9.42214355 9.63008301 9.86499023 10.30883789 C22.54241704 30.16975885 31.67526215 51.5804806 37.375 74.4375 C37.71494995 75.77216309 37.71494995 75.77216309 38.06176758 77.13378906 C39.22273159 82.14091026 40.04003164 87.08296753 40.56226254 92.19349957 C41.71156956 103.39062268 43.35253257 114.19969849 46.03138733 125.1374054 C56.40949521 168.59780697 62.71593119 223.07450662 38.421059 263.05757501 C19.37615342 292.7901523 -6.27401249 318.20874064 -31.19140625 342.98046875 C-32.11931471 343.90389094 -33.04722317 344.82731313 -34.00325006 345.77871782 C-57.66059764 369.28152518 -81.95349837 392.07776531 -106.50211286 414.64327842 C-121.57597573 428.50216773 -136.46996824 442.53385203 -151.23901367 456.71704102 C-151.74578169 457.20358547 -152.25254971 457.69012993 -152.77467433 458.19141816 C-158.37212429 463.56588359 -163.96530447 468.94477639 -169.55605996 474.32620466 C-179.40360199 483.80499205 -189.26535093 493.26894827 -199.13572693 502.72395325 C-200.08758979 503.63591384 -201.03945265 504.54787443 -202.02015983 505.48747019 C-216.06336366 518.93459477 -230.20725454 532.26908829 -244.42738342 545.52885437 C-246.20797086 547.19074775 -247.98853106 548.85267032 -249.76906288 550.51462328 C-257.25678292 557.50024279 -264.75162356 564.47759543 -272.27795348 571.42162056 C-275.25294943 574.17057739 -278.21853224 576.92953436 -281.18191468 579.69100121 C-282.54750108 580.95882276 -283.9175235 582.22188498 -285.29219753 583.47984722 C-287.14890419 585.17928244 -288.99030562 586.8938318 -290.82875919 588.61296368 C-291.37525931 589.10545254 -291.92175943 589.5979414 -292.48482016 590.10535416 C-295.19721269 592.5904754 -295.19721269 592.5904754 -296.16080999 596.00115067 C-294.44542377 598.95494899 -292.10025404 601.09403385 -289.59828091 603.36862564 C-289.02645676 603.90076943 -288.45463261 604.43291322 -287.86548045 604.98118258 C-286.60518406 606.15196732 -285.34130283 607.3189017 -284.07438599 608.48251918 C-281.99697323 610.39064135 -279.92894044 612.30849015 -277.86282164 614.22883201 C-274.82145848 617.05371934 -271.77616406 619.87427796 -268.72790527 622.69172287 C-260.2465388 630.53393203 -251.79879525 638.41227608 -243.35325623 646.29302979 C-242.45488336 647.13103239 -241.55651049 647.96903499 -240.6309142 648.83243161 C-226.40615236 662.10779296 -212.28569509 675.48831953 -198.23500061 688.94769287 C-197.75858378 689.40400611 -197.28216695 689.86031935 -196.79131324 690.33046027 C-186.93147426 699.77485351 -177.08389739 709.23195662 -167.25006051 718.70342054 C-161.67519119 724.07270206 -156.09674691 729.43825353 -150.51538086 734.80078125 C-150.01040692 735.28607723 -149.50543297 735.77137321 -148.98515679 736.27137513 C-134.28386176 750.39684666 -119.4283774 764.33842224 -104.41638322 778.13302284 C-79.48744847 801.04061611 -54.89417656 824.24880432 -30.90234375 848.140625 C-29.97623022 849.0619751 -29.05011668 849.98332521 -28.0959391 850.93259501 C15.15217845 894.0611267 54.43758519 934.26495958 54.65342712 998.42913818 C54.38644287 1022.66855226 50.89982621 1046.59432246 45.20946264 1070.12108994 C42.65748081 1080.83912546 41.40660931 1091.58546487 40.28466618 1102.53028536 C39.69710383 1107.62787485 38.64118164 1112.59139794 37.375 1117.5625 C37.12194092 1118.57731445 36.86888184 1119.59212891 36.6081543 1120.63769531 C30.68425635 1143.4054265 21.13996604 1164.79830873 8 1184.3125 C7.31478271 1185.33633789 7.31478271 1185.33633789 6.61572266 1186.38085938 C5.3125 1188.23828125 5.3125 1188.23828125 3 1191 C-0.91500835 1191 -1.45345325 1189.92249882 -4.18249154 1187.19585729 C-5.04093946 1186.34543237 -5.89938739 1185.49500745 -6.78384888 1184.61881208 C-7.73891638 1183.65749103 -8.69384663 1182.6960336 -9.64865494 1181.73445511 C-10.66484119 1180.72200156 -11.68168342 1179.71020604 -12.69912493 1178.69901395 C-15.51517627 1175.89639697 -18.32171432 1173.08441424 -21.12688898 1170.27091641 C-24.17197822 1167.22005333 -27.22568677 1164.1778391 -30.27832961 1161.13453746 C-35.63455449 1155.79227107 -40.98511612 1150.44438372 -46.3320694 1145.09283829 C-54.28295543 1137.13514135 -62.24232998 1129.185976 -70.20339811 1121.23846713 C-85.24589923 1106.22092659 -100.27814422 1091.19314763 -115.30722311 1076.16217616 C-126.90903775 1064.55899056 -138.51343736 1052.95839611 -150.11968231 1041.35964203 C-151.78478147 1039.69559319 -153.44987927 1038.031543 -155.11497574 1036.36749147 C-155.94147012 1035.54151643 -156.76796451 1034.71554138 -157.61950418 1033.86453679 C-158.44747649 1033.03708462 -159.27544881 1032.20963245 -160.12851119 1031.35710597 C-160.9578283 1030.52831285 -161.78714541 1029.69951973 -162.64159335 1028.84561167 C-185.97936786 1005.5224286 -209.31398086 982.1960863 -232.64215469 958.86330032 C-233.52230086 957.9829822 -234.40244702 957.10266408 -235.30926429 956.19566966 C-239.7705919 951.73345309 -244.23189159 947.2712086 -248.69318154 942.80895439 C-249.57927188 941.92267302 -250.46536222 941.03639164 -251.37830378 940.12325326 C-253.1701945 938.33097545 -254.9620836 936.53869603 -256.75397108 934.74641499 C-284.64475376 906.84966036 -312.54622444 878.9636352 -340.45605469 851.0859375 C-371.78382185 819.79420704 -403.10324674 788.49416061 -434.41052413 757.18192935 C-437.74551661 753.84646686 -441.08053898 750.51103425 -444.41558075 747.17562103 C-445.64740971 745.94363849 -445.64740971 745.94363849 -446.90412411 744.68676742 C-459.32759689 732.26209737 -471.75765477 719.84404071 -484.19104767 707.4292984 C-498.32265046 693.31888282 -512.44560523 679.19987879 -526.55689695 665.06914952 C-534.46320913 657.15247192 -542.37643579 649.24285389 -550.29956803 641.34300931 C-555.5820903 636.07464497 -560.85557963 630.79735585 -566.12161726 625.51251431 C-569.12838315 622.49552933 -572.1390766 619.48275573 -575.16075352 616.48069873 C-577.90428031 613.75482696 -580.63624369 611.01791764 -583.3590606 608.27136326 C-584.34505131 607.28088657 -585.3353404 606.29466767 -586.33016659 605.31306562 C-587.67117487 603.98869689 -588.99558586 602.64758329 -590.31890512 601.30553937 C-591.0596098 600.56494337 -591.80031449 599.82434736 -592.56346478 599.06130905 C-594 597 -594 597 -593.97547667 594.99959925 C-592.70847957 592.40242136 -591.12040582 590.74651562 -589.07346815 588.70087266 C-588.22120446 587.84186709 -587.36894076 586.98286151 -586.4908509 586.09782547 C-585.53264869 585.14732092 -584.57431046 584.19695347 -583.6158514 583.24670792 C-582.60272692 582.23136553 -581.59026137 581.2153653 -580.57839856 580.19876558 C-577.77859149 577.38971635 -574.96944972 574.59016392 -572.15878398 571.7919854 C-569.10928324 568.75275688 -566.06846522 565.70486267 -563.02656323 562.65803218 C-557.68836004 557.31359629 -552.34458435 551.97478293 -546.99717522 546.63955879 C-539.04574116 538.70619333 -531.10288613 530.76428052 -523.16180056 522.82055817 C-509.80487342 509.45968458 -496.44096069 496.1058188 -483.07308769 482.75589752 C-469.83234744 469.53289282 -456.59470001 456.30680453 -443.3611927 443.07656097 C-442.5391578 442.25473229 -441.7171229 441.43290361 -440.87017785 440.58617103 C-436.69569614 436.41270428 -432.52126982 432.23918212 -428.34686483 428.06563863 C-398.75978093 398.48486026 -369.16574383 368.91104718 -339.56762695 339.34130859 C-310.80890199 310.61012536 -282.05332129 281.87580117 -253.30200195 253.13720703 C-252.41615832 252.25175798 -251.53031469 251.36630893 -250.61762732 250.45402809 C-241.72183249 241.56218873 -232.82610166 232.67028535 -223.93041771 223.77833506 C-205.80799167 205.66351818 -187.68513844 187.54912871 -169.56202698 169.43499756 C-168.72870934 168.60209179 -167.89539169 167.76918602 -167.036822 166.91104067 C-111.36503542 111.266868 -55.68329065 55.63266022 0 0 Z " fill="#FF5401" transform="translate(1657,428)"/>
<path d="M0 0 C2.60041216 1.26797312 4.25794898 2.85906348 6.30594012 4.90834863 C7.16637911 5.76204575 8.0268181 6.61574286 8.913331 7.49530958 C9.8654561 8.45513234 10.8174441 9.41509111 11.76931021 10.37517072 C12.78635802 11.39000063 13.80406367 12.40417161 14.82236883 13.41773985 C17.63615322 16.22228202 20.44044087 19.03615912 23.24335456 21.85155999 C26.28771612 24.90619371 29.34074334 27.95214479 32.39270684 30.9991798 C37.7461551 36.34639534 43.09398085 41.69918346 48.43821737 47.05560495 C56.38498411 55.02044023 64.34029816 62.97669656 72.29742176 70.93118337 C85.68083426 84.31064942 99.05723896 97.69710109 112.42969915 111.08751298 C125.67503256 124.35058193 138.92344954 137.61055807 152.17602178 150.86639406 C152.99923681 151.68981531 153.82245184 152.51323655 154.67061278 153.36160996 C158.85111958 157.54313172 163.03168178 161.72459808 167.21226531 165.90604312 C196.84295798 195.54304131 226.46668536 225.18699273 256.08633825 254.83502389 C284.8660241 283.64225146 313.64885089 312.44633477 342.43594763 341.24615671 C343.76636229 342.57716324 343.76636229 342.57716324 345.12365401 343.93505878 C354.03049677 352.84585701 362.93740355 361.75659125 371.84435724 370.66727859 C389.98974002 388.82027054 408.1346954 406.97368967 426.27939245 425.12736703 C427.11370371 425.96209016 427.94801497 426.7968133 428.80760839 427.65683107 C484.54569828 483.42253488 540.27382329 539.19819688 596.00040075 594.97540475 C577.12431303 614.24681361 547.14694433 624.97981925 521.56290075 631.35040475 C520.67328649 631.57695749 519.78367224 631.80351022 518.86709997 632.03692819 C513.8625504 633.19752992 508.92237912 634.01491499 503.81451437 634.53766729 C492.58761235 635.69139591 481.7439109 637.34168289 470.7721903 640.00679208 C427.05245293 650.35862882 372.15344104 656.77635066 331.91789186 632.39646376 C302.14662099 613.37556114 276.7061773 587.71467786 251.92227575 562.7839985 C250.53718427 561.39213582 250.53718427 561.39213582 249.12411115 559.97215469 C225.6255897 536.31818642 202.83866278 512.02468154 180.2842427 487.47329189 C166.43259982 472.39822238 152.40685361 457.50444214 138.2284281 442.73639108 C137.74201516 442.22962306 137.25560223 441.72285505 136.75444951 441.20073042 C131.38141216 435.60325741 126.00391635 430.01008312 120.62387249 424.4193448 C111.14761574 414.57192345 101.68634839 404.71014779 92.23410437 394.83967783 C91.3224185 393.88781497 90.41073264 392.93595211 89.47141993 391.95524492 C76.0289339 377.91259413 62.69974994 363.76872968 49.44589636 349.54802133 C47.78482042 347.76743619 46.1237177 345.98687602 44.46258709 344.20634188 C37.48053258 336.71868206 30.50683609 329.22382282 23.56650747 321.69745127 C20.81904207 318.72246265 18.06157889 315.75687967 15.30161226 312.79349007 C14.03448999 311.42790447 12.77213051 310.05788204 11.51487476 308.68320722 C9.81640396 306.82650426 8.1028146 304.98510258 6.38464376 303.14664556 C5.89244075 302.60014544 5.40023774 302.05364532 4.89311948 301.4905846 C2.40935255 298.77810597 2.40935255 298.77810597 -1.00040075 297.81459476 C-3.95487168 299.53007193 -6.09525286 301.87531752 -8.3710182 304.37712385 C-8.90346159 304.948948 -9.43590497 305.52077215 -9.984483 306.1099243 C-11.15592523 307.37022037 -12.3235189 308.6341016 -13.48779721 309.90101876 C-15.39699146 311.97842643 -17.31590111 314.04646035 -19.23729846 316.11258312 C-22.06372052 319.1539403 -24.8858092 322.19923507 -27.70478037 325.24749948 C-35.55113739 333.72879955 -43.43356308 342.17652176 -51.31827906 350.62214853 C-52.5758969 351.96970783 -52.5758969 351.96970783 -53.85892116 353.34449056 C-67.14009976 367.56863741 -80.52570479 381.68919958 -93.98963526 395.74040414 C-94.44608656 396.21682098 -94.90253786 396.69323781 -95.37282101 397.18409151 C-104.81996734 407.04382917 -114.2797266 416.89139532 -123.753714 426.72534425 C-129.1243849 432.30023485 -134.49134973 437.87867846 -139.85531214 443.46002389 C-140.34073888 443.96499784 -140.82616562 444.46997178 -141.32630226 444.99024797 C-155.45661512 459.6925979 -169.404432 474.54816707 -183.20635642 489.55902153 C-206.1250335 514.48489039 -229.34202683 539.07790475 -253.2378805 563.073061 C-254.15926917 563.99917454 -255.08065785 564.92528807 -256.0299674 565.87946565 C-298.98478492 608.95218201 -339.12334233 648.41220717 -403.06653956 648.62883188 C-427.11844265 648.36200794 -450.85049686 644.8751857 -474.18393257 639.1848674 C-484.87746551 636.61941259 -495.6024557 635.37817564 -506.52639523 634.26007093 C-511.62532949 633.67318278 -516.58978498 632.61689516 -521.56209925 631.35040475 C-522.5769137 631.09734567 -523.59172815 630.84428659 -524.63729456 630.58355905 C-547.40325599 624.66012157 -568.7473139 615.08844575 -588.31209925 602.03790475 C-588.99465784 601.58947214 -589.67721644 601.14103952 -590.38045862 600.67901804 C-592.2378805 599.385561 -592.2378805 599.385561 -594.99959925 596.97540475 C-594.99959925 592.22611128 -594.42386323 591.89927838 -591.20186856 588.67512675 C-590.35287706 587.81586495 -589.50388556 586.95660315 -588.62916705 586.07130311 C-587.66951007 585.12046542 -586.70967151 584.16981095 -585.74967173 583.21931936 C-584.73870996 582.20388495 -583.72862613 581.18757585 -582.71934685 580.17046915 C-579.92369335 577.35830883 -577.11560572 574.55885194 -574.30545486 571.76118879 C-571.2579127 568.72284598 -568.22192185 565.67299879 -565.18447497 562.62456973 C-559.8528582 557.27692055 -554.51377658 551.93681495 -549.16981295 546.60150529 C-541.22341088 538.66793727 -533.28841043 530.72303925 -525.35564556 522.77583836 C-511.19029526 508.58550738 -497.01338719 494.4067675 -482.83149936 480.23296627 C-470.42129697 467.82982598 -458.01459285 455.42320038 -445.61142328 443.01302721 C-443.95017677 441.35086938 -442.28892998 439.68871182 -440.62768291 438.02655454 C-438.12460739 435.52209595 -435.62153588 433.01763336 -433.11847482 430.51316032 C-409.83574924 407.21744666 -386.54908071 383.92568031 -363.254051 360.6422701 C-362.37521574 359.76387281 -361.49638048 358.88547552 -360.59091385 357.98046014 C-353.45328418 350.84643761 -346.31554081 343.71252885 -339.17779015 336.57862737 C-311.32686296 308.74255155 -283.48777903 280.89468148 -255.65829065 253.03717233 C-224.41935208 221.76684057 -193.17223939 190.50471196 -161.91249564 159.25517733 C-158.58265535 155.92637389 -155.25283987 152.59754563 -151.92303827 149.26870348 C-151.10309973 148.44901382 -150.28316119 147.62932416 -149.43837602 146.78479543 C-137.03483502 134.38470152 -124.63770027 121.97822694 -112.24370173 109.5685959 C-98.15718474 95.46435296 -84.06195489 81.36888528 -69.95491856 67.28516439 C-62.05158973 59.39438374 -54.15529924 51.49670791 -46.26877047 43.58913544 C-41.00929715 38.31700438 -35.74089451 33.05391368 -30.46493311 27.79828288 C-27.45302798 24.79747111 -24.44533041 21.79273466 -21.44834316 18.77701763 C-18.72707571 16.03890574 -15.99477198 13.31236039 -13.25282311 10.59496343 C-12.26401468 9.6109363 -11.27946277 8.62261073 -10.29952661 7.62974791 C-8.97739763 6.2913811 -7.63852699 4.96961315 -6.29872659 3.64893694 C-5.55937843 2.90970384 -4.82003027 2.17047074 -4.05827762 1.40883663 C-1.99959925 -0.02459525 -1.99959925 -0.02459525 0 0 Z " fill="#FF5401" transform="translate(1023.9995992481709,1063.024595245719)"/>
<path d="M0 0 C6.01602555 4.98662446 11.52756558 10.38340587 17.04714203 15.91012764 C18.05818549 16.9189116 19.06944522 17.92747885 20.08090031 18.93585008 C22.85827292 21.70601853 25.63254922 24.4792697 28.40631851 27.25304551 C31.42499066 30.27064502 34.44652085 33.28538055 37.46767473 36.30049503 C43.45831347 42.28007779 49.44625441 48.26235541 55.43336205 54.24547347 C62.60464137 61.41173715 69.77877408 68.57514177 76.9529129 75.73854259 C94.28674234 93.0467679 111.61529752 110.36026964 128.94275471 127.67487393 C134.67904457 133.40690851 140.41548957 139.1387878 146.15203285 144.87056875 C176.64528246 175.33856752 207.13693221 205.80816642 237.62377167 236.28257942 C244.68372788 243.33961427 251.74370716 250.39662603 258.80371094 257.45361328 C260.11938803 258.76873401 260.11938803 258.76873401 261.46164445 260.11042283 C289.9328762 288.56948511 318.41349295 317.01913157 346.89946162 345.46344244 C376.17602994 374.69727459 405.4445575 403.93913121 434.70238608 433.19171912 C438.82966031 437.31825285 442.95701962 441.44470148 447.08442688 445.57110214 C447.89676128 446.38324593 448.70909569 447.19538972 449.54604628 448.03214393 C462.64525613 461.12783349 475.75285049 474.21510002 488.86347856 487.29935719 C502.02418906 500.43399329 515.17575369 513.57773053 528.317931 526.73091091 C536.13536113 534.5543407 543.95974256 542.37066798 551.79404933 550.17719841 C557.01718918 555.38317995 562.2313102 560.59807637 567.43799662 565.82051339 C570.41077925 568.80176628 573.38749232 571.77879868 576.37519759 574.7451029 C579.08783981 577.43846841 581.78892003 580.14287079 584.4808623 582.8569211 C585.45566524 583.8356192 586.43476625 584.81005773 587.41840412 585.7798759 C588.74435635 587.08838383 590.05371391 588.41364593 591.36197996 589.73983681 C592.09430262 590.47160331 592.82662528 591.2033698 593.58113953 591.95731104 C595 594 595 594 594.97278449 595.99756474 C593.70911735 598.59876949 592.1219082 600.25198295 590.07346815 602.29912734 C589.22120446 603.15813291 588.36894076 604.01713849 587.4908509 604.90217453 C586.53264869 605.85267908 585.57431046 606.80304653 584.6158514 607.75329208 C583.60272692 608.76863447 582.59026137 609.7846347 581.57839856 610.80123442 C578.77859149 613.61028365 575.96944972 616.40983608 573.15878398 619.2080146 C570.10928324 622.24724312 567.06846522 625.29513733 564.02656323 628.34196782 C558.68836004 633.68640371 553.34458435 639.02521707 547.99717522 644.36044121 C540.04574116 652.29380667 532.10288613 660.23571948 524.16180056 668.17944183 C510.80487342 681.54031542 497.44096069 694.8941812 484.07308769 708.24410248 C470.83234744 721.46710718 457.59470001 734.69319547 444.3611927 747.92343903 C443.5391578 748.74526771 442.7171229 749.56709639 441.87017785 750.41382897 C437.69569614 754.58729572 433.52126982 758.76081788 429.34686483 762.93436137 C399.75978093 792.51513974 370.16574383 822.08895282 340.56762695 851.65869141 C311.80890199 880.38987464 283.05332129 909.12419883 254.30200195 937.86279297 C253.41615832 938.74824202 252.53031469 939.63369107 251.61762732 940.54597191 C242.72183249 949.43781127 233.82610166 958.32971465 224.93041771 967.22166494 C206.80799167 985.33648182 188.68513844 1003.45087129 170.56202698 1021.56500244 C169.72870934 1022.39790821 168.89539169 1023.23081398 168.036822 1024.08895933 C112.36503542 1079.733132 56.68329065 1135.36733978 1 1191 C-2.99844394 1189.66718535 -4.29015794 1187.13372548 -6.5 1183.75 C-6.9343335 1183.08669678 -7.36866699 1182.42339355 -7.81616211 1181.73999023 C-20.53740243 1161.88249976 -29.67075672 1140.43758703 -35.375 1117.5625 C-35.6016333 1116.67272461 -35.8282666 1115.78294922 -36.06176758 1114.86621094 C-37.22140103 1109.86482829 -38.03899231 1104.92677161 -38.56288052 1099.82234478 C-39.72231128 1088.56484599 -41.3805959 1077.68170266 -44.02345276 1066.67304993 C-54.30744781 1022.71440671 -60.86253853 967.38103379 -36.43453556 926.90603378 C-17.50350488 897.16778961 8.09654887 871.77115111 32.97265625 847.04296875 C33.89782813 846.12233888 34.823 845.20170902 35.77620739 844.25318128 C59.3560418 820.82969338 83.57805212 798.12406193 108.06126925 775.65180594 C123.09358981 761.85140783 137.94315607 747.87557599 152.66625977 733.74584961 C153.17153373 733.26106226 153.67680769 732.77627491 154.19739298 732.27679703 C159.77839696 726.9216803 165.35507323 721.56207348 170.92930233 716.19990575 C180.7475258 706.75525515 190.58025087 697.32575412 200.42173767 687.90534973 C201.37079304 686.99674609 202.3198484 686.08814244 203.29766303 685.15200535 C217.29808828 671.75581903 231.40023655 658.4736278 245.57984924 645.26737976 C247.35518052 643.61237281 249.13048909 641.95734151 250.905774 640.30228484 C258.37124992 633.34591644 265.84400285 626.39799976 273.34829069 619.4834968 C276.31451516 616.74628048 279.2713418 613.99906722 282.22598248 611.24935643 C283.58752994 609.98697023 284.95351472 608.72935102 286.32415236 607.4768404 C288.17540599 605.78478135 290.01136062 604.07759827 291.84437656 602.36583233 C292.38927234 601.87551951 292.93416811 601.38520669 293.49557588 600.88003591 C296.20220309 598.40235654 296.20220309 598.40235654 297.15885782 594.9991985 C295.44927576 592.04992049 293.11106651 589.91653858 290.61389828 587.64699173 C290.0437625 587.11653632 289.47362673 586.5860809 288.88621411 586.03955108 C287.62965827 584.87250568 286.36951747 583.70931162 285.10634082 582.54943565 C283.0350552 580.64744333 280.97315099 578.73572186 278.91315991 576.82150626 C275.88080932 574.00563008 272.8445274 571.19408401 269.80528069 568.38565254 C261.34894353 560.56847996 252.92623124 552.71516239 244.50572205 544.85943604 C243.6100085 544.02409275 242.71429495 543.18874947 241.79143856 542.32809275 C227.60850148 529.09457551 213.52988176 515.75587763 199.52101135 502.33831787 C198.56979241 501.42732733 197.61857347 500.51633678 196.63852971 499.57774046 C187.28973953 490.62226367 177.95271262 481.65459098 168.62776896 472.67428791 C163.06941217 467.32151854 157.50748046 461.97247964 151.94262695 456.62646484 C151.43914785 456.14266371 150.93566875 455.65886257 150.41693271 455.16040079 C135.75959191 441.07886641 120.94811085 427.18127319 105.9800752 413.43066913 C81.12338359 390.59544347 56.60349297 367.46051592 32.68359375 343.640625 C31.76022183 342.72201651 30.83684992 341.80340803 29.88549703 340.85696292 C-13.30730519 297.78394824 -52.40412939 257.67072725 -52.61936951 193.60491943 C-52.35324161 169.35850288 -48.87670826 145.42292289 -43.20386553 121.88450718 C-40.65996699 111.16391863 -39.40844652 100.41489822 -38.28494942 89.4694314 C-37.69675656 84.37202878 -36.64115741 79.40850692 -35.375 74.4375 C-35.12194092 73.42268555 -34.86888184 72.40787109 -34.6081543 71.36230469 C-28.39439032 47.48051113 -17.91258824 17.91258824 0 0 Z " fill="#FF3F03" transform="translate(389,428)"/>
<path d="M0 0 C43.69927047 -10.30962408 98.61054152 -16.75463855 138.83288732 7.5889172 C168.53252888 26.54383523 193.90725958 52.13332755 218.62322998 76.99610901 C219.54388772 77.92128088 220.46454545 78.84645276 221.41310191 79.79966015 C244.84086579 103.38286422 267.55582144 127.60428616 290.03916941 152.08472201 C303.84681523 167.11583524 317.82858547 181.96561533 331.96307373 196.68971252 C332.44799261 197.19498649 332.93291148 197.70026045 333.43252487 198.22084574 C338.7890697 203.80182666 344.1500735 209.37850882 349.51362562 214.95275509 C358.96080679 224.77109924 368.3929967 234.6037976 377.81616211 244.44519043 C378.72504048 245.3942458 379.63391885 246.34330116 380.57033899 247.32111578 C393.97116316 261.32209383 407.25866401 275.4242689 420.4708252 289.603302 C422.12664958 291.37863557 423.78250073 293.15394417 425.43837976 294.92922676 C432.39831306 302.39476289 439.3498859 309.86749721 446.26808546 317.37174344 C449.00679321 320.33797524 451.75550025 323.29480171 454.50671127 326.24943524 C455.76979674 327.61098348 457.02811869 328.97696826 458.2813358 330.34760512 C459.97435928 332.19886244 461.68250236 334.03481684 463.39522934 335.86782932 C463.88582801 336.4127251 464.37642667 336.95762087 464.88189197 337.51902863 C467.36092641 340.22556897 467.36092641 340.22556897 470.76500565 341.18231058 C473.71361257 339.47281896 475.84569706 337.13468741 478.11406994 334.63735104 C478.64422576 334.06721526 479.17438157 333.49707948 479.72060272 332.90966687 C480.88699065 331.6531107 482.04952542 330.39296991 483.20874055 329.12979358 C485.10966076 327.05850286 487.02032139 324.99659979 488.93348151 322.93661267 C491.74782297 319.9042561 494.55783897 316.86797454 497.36474419 313.82873344 C505.17776877 305.3723299 513.02700471 296.94959628 520.87876892 288.5291748 C521.71370292 287.63346126 522.54863691 286.73774771 523.40887193 285.81489132 C536.63657122 271.63133913 549.9701907 257.55282465 563.38319397 243.54446411 C564.29390839 242.59324517 565.20462281 241.64202623 566.14293464 240.66198247 C575.09580535 231.31309804 584.06096497 221.97606375 593.03887285 212.65122172 C598.39025287 207.09288621 603.73787841 201.53095383 609.0824585 195.96607971 C609.80796406 195.21086106 609.80796406 195.21086106 610.54812631 194.44038547 C624.62482105 179.78409864 638.51617246 164.972704 652.25945152 150.00352795 C675.0835937 125.14376464 698.20970457 100.62363328 722.02557373 76.70704651 C722.94414365 75.78367459 723.86271356 74.86030268 724.80911893 73.90894979 C768.05505312 30.54152995 808.23545815 -8.3814489 872.52113342 -8.59591675 C896.95516944 -8.32963066 921.08438256 -4.85330303 944.81610441 0.81958723 C955.56109781 3.35024409 966.33158342 4.6111526 977.29791296 5.73850334 C982.39397101 6.32737314 987.35655945 7.3826039 992.32635498 8.64845276 C993.34116943 8.90151184 994.35598389 9.15457092 995.40155029 9.41529846 C1021.08248185 16.09717715 1044.38502438 27.38999389 1065.76385498 43.02345276 C1064.28353987 46.45261947 1062.35508018 48.68350002 1059.72413933 51.31731874 C1058.87208666 52.17514712 1058.02003399 53.0329755 1057.14216155 53.91679868 C1056.18934549 54.8659278 1055.23643798 55.81496511 1054.28344917 56.76392078 C1053.27229034 57.77807522 1052.26156917 58.79266619 1051.25124758 59.80765471 C1048.45869895 62.61052691 1045.65991601 65.40710186 1042.86011741 68.20272952 C1039.82094214 71.23954675 1036.78752888 74.2821102 1033.75338161 77.32394952 C1028.42991814 82.65928158 1023.10270061 87.99084244 1017.77303314 93.31997681 C1009.84788085 101.24433726 1001.92840225 109.17434973 994.00998554 117.10543998 C978.22290169 132.91728801 962.42781882 148.72113179 946.6308544 164.52310761 C945.81242676 165.34179642 944.99399913 166.16048522 944.15077066 167.00398278 C943.33075005 167.82426367 942.51072943 168.64454456 941.66585971 169.48968245 C932.5887791 178.56984233 923.51341136 187.65171363 914.43810654 196.7336483 C887.0438147 224.14758869 859.64790172 251.55990634 832.24519539 278.96543598 C831.36837502 279.84235041 830.49155465 280.71926484 829.58816397 281.62275243 C826.03459563 285.17669927 822.48102004 288.73063886 818.92744269 292.28457669 C816.25263179 294.95965932 813.57782337 297.63474442 810.90301514 300.30982971 C810.01915707 301.1937758 809.13529901 302.07772189 808.22465736 302.98845422 C780.4361536 330.77986522 752.65726916 358.5808608 724.88543701 386.38893127 C693.7086352 417.60641307 662.52337589 448.81541369 631.32637775 480.01271313 C628.00329854 483.33588917 624.68025429 486.65910015 621.35723495 489.98233604 C620.53897256 490.80064255 619.72071017 491.61894906 618.87765195 492.46205273 C605.68154489 505.65928197 592.49361514 518.86465386 579.30851324 532.07287708 C566.07042489 545.33374964 552.82312866 558.58536721 539.56631769 571.82752333 C531.68071668 579.70494179 523.80219664 587.58929338 515.93346172 595.48356015 C510.68588992 600.74679008 505.42939818 606.0009942 500.16536006 611.24775508 C497.16028421 614.24348622 494.15942411 617.24314675 491.1692865 620.25379471 C488.45425038 622.98729663 485.72817662 625.70923647 482.99245679 628.42203349 C482.0059059 629.40439379 481.02361378 630.39105233 480.04594009 631.38224786 C478.7268591 632.7183706 477.39102897 634.03789742 476.05426896 635.3563326 C474.9477897 636.46331049 474.9477897 636.46331049 473.81895734 637.59265156 C471.76385498 639.02345276 471.76385498 639.02345276 469.76439957 638.99805601 C467.16589496 637.73214519 465.51086823 636.14435653 463.46472764 634.09692091 C462.60572207 633.24465721 461.74671649 632.39239352 460.86168045 631.51430365 C459.9111759 630.55610145 458.96080845 629.59776322 458.0105629 628.63930416 C456.99522051 627.62617968 455.97922028 626.61371413 454.96262056 625.60185131 C452.15357133 622.80204425 449.3540189 619.99290248 446.55584038 617.18223673 C443.51661186 614.132736 440.46871765 611.09191798 437.42188716 608.05001599 C432.07745127 602.7118128 426.73863791 597.36803711 421.40341377 592.02062798 C413.47004831 584.06919392 405.5281355 576.12633889 397.58441315 568.18525332 C384.22353956 554.82832618 370.86967378 541.46441344 357.5197525 528.09654045 C344.2967478 514.8558002 331.07065951 501.61815276 317.84041595 488.38464546 C317.01858727 487.56261056 316.19675859 486.74057566 315.35002601 485.89363061 C311.17655926 481.7191489 307.0030371 477.54472258 302.82949361 473.37031759 C273.24871524 443.78323369 243.67490216 414.18919658 214.10516357 384.59107971 C185.37398034 355.83235475 156.63965615 327.07677405 127.90106201 298.32545471 C127.01561296 297.43961108 126.13016391 296.55376745 125.21788307 295.64108008 C116.32604371 286.74528525 107.43414033 277.84955441 98.54219004 268.95387047 C80.42737316 250.83144443 62.31298369 232.7085912 44.19885254 214.58547974 C42.94949388 213.33550327 42.94949388 213.33550327 41.67489566 212.06027476 C-13.96927702 156.38848818 -69.6034848 100.70674341 -125.23614502 45.02345276 C-106.3600573 25.7520439 -76.3826886 15.01903826 -50.79864502 8.64845276 C-49.90903076 8.42190002 -49.0194165 8.19534729 -48.10284424 7.96192932 C-43.09861328 6.80140148 -38.15834443 5.98397794 -33.05087662 5.46057224 C-21.82319027 4.30558178 -10.97470728 2.65633753 0 0 Z " fill="#FF3F03" transform="translate(553.2361450195313,344.97654724121094)"/>
<path d="M0 0 C2.8564043 0.94009901 5.71177807 1.88314991 8.56665039 2.82788086 C9.76727993 3.22252659 9.76727993 3.22252659 10.99216461 3.62514496 C17.96674014 5.93740401 24.70222975 8.61924268 31.4375 11.5625 C33.20903442 12.33122437 33.20903442 12.33122437 35.01635742 13.11547852 C55.98064583 22.26658586 76.30305758 32.36507776 96 44 C96.95890137 44.56332031 97.91780273 45.12664062 98.90576172 45.70703125 C112.72297283 53.85617357 126.02643324 62.5663248 139 72 C139.59345215 72.43151367 140.1869043 72.86302734 140.79833984 73.30761719 C144.23733101 75.82283955 147.62801536 78.39584725 151 81 C151.54285645 81.41813965 152.08571289 81.8362793 152.64501953 82.26708984 C164.10559818 91.11345596 175.15934171 100.40388858 186 110 C184.59648519 113.17381595 182.93930291 115.3097262 180.48987389 117.75622177 C179.39185623 118.86021258 179.39185623 118.86021258 178.27165639 119.98650622 C177.46427388 120.78806305 176.65689137 121.58961988 175.82504272 122.41546631 C174.96987143 123.27234645 174.11470014 124.12922659 173.23361456 125.0120728 C170.85879645 127.38961782 168.47956751 129.76258767 166.0983839 132.13374734 C163.5317255 134.69177571 160.97084238 137.25557421 158.40925598 139.81867981 C153.97029904 144.25868588 149.52769243 148.69501291 145.08259201 153.1288681 C138.6557153 159.53949665 132.2343627 165.9556351 125.81434865 172.37313548 C115.39836936 182.7847366 104.97793077 193.19186276 94.5546875 203.59619141 C84.42897363 213.70354965 74.30536066 223.81300456 64.18457031 233.92529297 C63.56081368 234.54852415 62.93705705 235.17175533 62.29439871 235.81387231 C59.16523471 238.94042625 56.036112 242.06702153 52.90700984 245.19363737 C26.94440741 271.13550349 0.9745676 297.07011442 -25 323 C-29.47152548 321.3294502 -32.87780831 318.96536738 -36.625 316.0625 C-75.58748509 286.84063618 -126.16698195 270.09467974 -174.7956543 269.79467773 C-175.81163193 269.78477814 -176.82760956 269.77487854 -177.87437439 269.76467896 C-181.19096649 269.73340543 -184.50757285 269.70844341 -187.82421875 269.68359375 C-190.14020636 269.66299463 -192.45619046 269.64199744 -194.77217102 269.62062073 C-200.83667134 269.56570529 -206.90120385 269.51616271 -212.96575928 269.46777344 C-219.16665476 269.41733402 -225.36750409 269.36176566 -231.56835938 269.30664062 C-243.71220007 269.19943305 -255.85608101 269.09790667 -268 269 C-262.80227109 262.7051735 -257.10905991 256.9715156 -251.3319397 251.21168518 C-250.24585036 250.12515928 -249.159981 249.03841345 -248.07431161 247.95146793 C-245.10289578 244.97782387 -242.12838409 242.0072938 -239.15334296 239.03727734 C-235.94096992 235.82923266 -232.73149754 232.6182883 -229.52166748 229.40769958 C-223.96417455 223.84968293 -218.40485722 218.29349657 -212.84428787 212.73855782 C-204.80469238 204.70709785 -196.76786767 196.67286994 -188.73171119 188.63796913 C-175.69272569 175.60117091 -162.65150972 162.56660629 -149.60888672 149.53344727 C-136.94104687 136.87478988 -124.2742603 124.21508007 -111.60888672 111.55395508 C-110.82787022 110.7732013 -110.04685372 109.99244752 -109.24217005 109.18803454 C-105.32394998 105.27111953 -101.40575058 101.35418384 -97.48756146 97.43723786 C-64.99491255 64.9549515 -32.49864185 32.47629034 0 0 Z " fill="#FF4402" transform="translate(1680,31)"/>
<path d="M0 0 C0.00879936 1.87110695 0.00879936 1.87110695 0.01777649 3.78001404 C0.0754762 15.64827557 0.14847466 27.51636212 0.23571491 39.38444424 C0.28007324 45.48308886 0.31940108 51.58167195 0.34643555 57.68041992 C0.3728186 63.58745788 0.41345532 69.49425438 0.46318626 75.40114021 C0.47962224 77.63285333 0.49127884 79.86460796 0.49761391 82.0963726 C0.5708478 105.56721592 3.02174858 128.27669611 9 151 C9.33040283 152.26553711 9.33040283 152.26553711 9.66748047 153.55664062 C16.92587892 180.77695262 29.55562913 207.13613205 46 230 C46.59699707 230.8360376 46.59699707 230.8360376 47.20605469 231.68896484 C49.44211008 234.81413153 51.70567132 237.91739639 54 241 C52.59648519 244.17381595 50.93930291 246.3097262 48.48987389 248.75622177 C47.75786211 249.49221564 47.02585034 250.22820951 46.27165639 250.98650622 C45.46427388 251.78806305 44.65689137 252.58961988 43.82504272 253.41546631 C42.96987143 254.27234645 42.11470014 255.12922659 41.23361456 256.0120728 C38.85879645 258.38961782 36.47956751 260.76258767 34.0983839 263.13374734 C31.5317255 265.69177571 28.97084238 268.25557421 26.40925598 270.81867981 C21.97029904 275.25868588 17.52769243 279.69501291 13.08259201 284.1288681 C6.6557153 290.53949665 0.2343627 296.9556351 -6.18565135 303.37313548 C-16.60163064 313.7847366 -27.02206923 324.19186276 -37.4453125 334.59619141 C-47.57102637 344.70354965 -57.69463934 354.81300456 -67.81542969 364.92529297 C-68.43918632 365.54852415 -69.06294295 366.17175533 -69.70560129 366.81387231 C-72.83476529 369.94042625 -75.963888 373.06702153 -79.09299016 376.19363737 C-105.05559259 402.13550349 -131.0254324 428.07011442 -157 454 C-166.04166651 449.75146359 -172.09632179 439.46867435 -178.12109375 431.6875 C-180.01776232 429.24218693 -181.94547275 426.82848895 -183.91015625 424.4375 C-191.32744205 415.39074265 -198.00560189 405.9638898 -204.50097656 396.23681641 C-205.84919285 394.22503178 -207.21306826 392.2254696 -208.5859375 390.23046875 C-233.74980159 353.46377202 -256.84985776 311.08242478 -269 268 C-234.87832689 233.85546349 -200.75403893 199.71354222 -166.62621689 165.57515156 C-162.6017851 161.54946899 -158.57737508 157.52376466 -154.55297852 153.49804688 C-153.75175607 152.69656212 -152.95053362 151.89507736 -152.1250317 151.06930518 C-139.13306267 138.07297879 -126.14286001 125.07488822 -113.15330345 112.07615066 C-99.83568726 98.74919977 -86.51618816 85.42413295 -73.19492048 72.10083199 C-64.96777488 63.87231077 -56.7421209 55.64230416 -48.51833832 47.41042185 C-42.88725942 41.77407776 -37.25436112 36.1395563 -31.61999733 30.50649595 C-28.36399549 27.25113785 -25.10883191 23.99495241 -21.85581589 20.73661041 C-18.88303116 17.75899377 -15.90799097 14.78365093 -12.93106931 11.81017041 C-11.84942778 10.72895478 -10.76864739 9.64687691 -9.68877626 8.56389308 C-8.23095982 7.10211618 -6.77015808 5.64339248 -5.30850315 4.18545532 C-4.49476248 3.37133493 -3.68102182 2.55721455 -2.84262234 1.71842384 C-1 0 -1 0 0 0 Z " fill="#FF4402" transform="translate(300,1412)"/>
<path d="M0 0 C5.50563537 4.5891768 10.60526063 9.46614859 15.66233826 14.54208374 C16.50953102 15.38842208 17.35672378 16.23476041 18.22958905 17.10674536 C20.56431338 19.44011372 22.89678795 21.77568937 25.22831523 24.11224961 C27.74923259 26.637504 30.27305848 29.15984864 32.79652405 31.68255615 C37.16280899 36.04831792 41.52726598 40.41590015 45.8904705 44.78474045 C52.19885777 51.10127066 58.51001964 57.41502267 64.8218521 63.72811003 C75.06345029 73.97189435 85.30281546 84.2179077 95.54077148 94.46533203 C105.48328151 104.41702753 115.42684609 114.36766739 125.37182617 124.31689453 C125.9853082 124.93063928 126.59879022 125.54438403 127.23086261 126.1767271 C130.30866962 129.25583919 133.38649733 132.3349306 136.46433532 135.41401172 C161.97943275 160.93946809 187.4909042 186.46854591 213 212 C212.05187048 213.12334132 211.10127843 214.24460448 210.1496582 215.36499023 C209.35601616 216.3019297 209.35601616 216.3019297 208.54634094 217.25779724 C206.59968944 219.45101448 204.49088448 221.25030575 202.1875 223.0625 C201.23359375 223.82175781 200.2796875 224.58101562 199.296875 225.36328125 C198.77287109 225.77916504 198.24886719 226.19504883 197.70898438 226.62353516 C195.83200507 228.13530792 193.98516584 229.67929515 192.140625 231.23046875 C148.70030877 267.68994721 98.21067574 296.42377818 45.5625 317.3125 C43.82178223 318.00593506 43.82178223 318.00593506 42.04589844 318.71337891 C40.95954102 319.13409668 39.87318359 319.55481445 38.75390625 319.98828125 C37.80845947 320.35477783 36.8630127 320.72127441 35.88891602 321.09887695 C32.48976368 322.1591551 29.56842887 322.81250947 26 323 C23.41859871 321.41333735 23.41859871 321.41333735 20.96882725 318.95600319 C20.50995456 318.50666086 20.05108188 318.05731852 19.57830396 317.59435976 C18.03990683 316.07820701 16.53178547 314.53510855 15.02186584 312.9906311 C13.91620499 311.88917378 12.80879034 310.78947461 11.69977659 309.69139326 C8.65316035 306.66464439 5.63210669 303.61344225 2.61456239 300.55774641 C-0.64221813 297.26853098 -3.92200587 294.00240201 -7.19906616 290.7334137 C-13.61612968 284.32495635 -20.01180146 277.8955469 -26.40084039 271.4591632 C-33.8352243 263.97155982 -41.29169998 256.50612226 -48.74954683 249.04190032 C-62.04985581 235.72895419 -75.33182876 222.39786733 -88.6027832 209.05566406 C-101.49447773 196.09482153 -114.39592989 183.14381244 -127.30981445 170.20507812 C-128.10550321 169.40785299 -128.90119196 168.61062785 -129.7209925 167.78924437 C-132.91886957 164.58525684 -136.11679551 161.3813181 -139.31479114 158.17744891 C-153.82855516 143.63672005 -168.33541458 129.0891024 -182.83984375 114.5390625 C-183.57818816 113.79841209 -184.31653257 113.05776167 -185.07725105 112.2946673 C-194.2953164 103.04747631 -203.50992817 93.7968653 -212.71886826 84.54058647 C-215.28979803 81.95658743 -217.86187021 79.37373411 -220.43497276 76.79189873 C-223.38833589 73.8283958 -226.33934995 70.86257533 -229.28840835 67.89478879 C-230.36067807 66.81649817 -231.4337986 65.73905288 -232.50781321 64.66250022 C-233.95741555 63.20918534 -235.40367373 61.75253704 -236.84971523 60.29567909 C-238.06064741 59.07881163 -238.06064741 59.07881163 -239.29604286 57.83736098 C-241 56 -241 56 -241 55 C-239.14768517 54.99120064 -239.14768517 54.99120064 -237.25794983 54.98222351 C-225.50741637 54.92451739 -213.75705954 54.85151589 -202.00670719 54.76428509 C-195.96859687 54.71993153 -189.93054864 54.68060278 -183.89233398 54.65356445 C-178.04364952 54.62717646 -172.1952087 54.58653667 -166.34667778 54.53681374 C-164.13729365 54.52038098 -161.92786763 54.50872244 -159.71843147 54.50238609 C-136.31408895 54.42860855 -113.65801921 51.96107573 -91 46 C-89.73446289 45.66959717 -89.73446289 45.66959717 -88.44335938 45.33251953 C-55.98177797 36.6765169 -26.47948984 20.41435529 0 0 Z " fill="#FF6F00" transform="translate(1654,1693)"/>
<path d="M0 0 C6.26807118 5.18384902 12.00204519 10.84208904 17.75708008 16.58299255 C18.84021126 17.65995189 19.92354443 18.73670809 21.007061 19.81327969 C23.97124055 22.75976147 26.93232541 25.70933585 29.89283872 28.65950072 C32.43525691 31.19224541 34.97948286 33.72317035 37.52370733 36.25410037 C46.62545906 45.3084258 55.71989427 54.37008482 64.8125 63.43359375 C65.52996336 64.14874953 66.24742672 64.86390531 66.98663139 65.60073248 C81.23442402 79.80310152 95.47875572 94.00893931 109.71725464 108.22062588 C112.84286635 111.34024875 115.96852647 114.45982312 119.09423828 117.5793457 C119.87109254 118.35466698 120.64794679 119.12998825 121.44834208 119.92880411 C134.05561656 132.51032083 146.67839546 145.07616684 159.30731285 157.63595497 C172.27345949 170.53170998 185.22451711 183.44246774 198.16117954 196.36780125 C205.42511387 203.62456728 212.69573819 210.87435318 219.98355103 218.10714531 C226.18408257 224.26089589 232.37104685 230.42787985 238.54040927 236.61288505 C241.68972642 239.76933213 244.84526221 242.91884474 248.01843071 246.05132866 C250.9208716 248.91684755 253.80438827 251.80006877 256.67371404 254.6987356 C257.7169553 255.74606616 258.76705868 256.78661317 259.82442534 257.8196811 C261.25677242 259.22105487 262.66244514 260.64954017 264.06646729 262.07929134 C264.85590855 262.86623691 265.64534981 263.65318249 266.45871353 264.46397489 C268.5974688 267.98307219 267.93161151 270.08268395 267 274 C266.39497782 275.93964438 265.72265566 277.8594495 264.98828125 279.75390625 C264.56772461 280.83994141 264.14716797 281.92597656 263.71386719 283.04492188 C263.02019043 284.78612305 263.02019043 284.78612305 262.3125 286.5625 C261.82555664 287.78904297 261.33861328 289.01558594 260.83691406 290.27929688 C244.3916867 331.27550261 223.0301718 370.30906537 197 406 C196.4848584 406.70801758 195.9697168 407.41603516 195.43896484 408.14550781 C185.93991411 421.14228284 175.78964586 433.60424701 165.375 445.875 C164.87806641 446.4642627 164.38113281 447.05352539 163.86914062 447.66064453 C161.69360286 450.20053206 159.80252156 452.1316523 157 454 C87.04 384.04 17.08 314.08 -55 242 C-50.55878468 235.33817701 -50.55878468 235.33817701 -48.3359375 232.328125 C-18.9724593 192.04631195 -1.10657255 142.34584591 -0.79467773 92.29614258 C-0.78477814 91.28991852 -0.77487854 90.28369446 -0.76467896 89.24697876 C-0.73341022 85.96285248 -0.70844537 82.6787118 -0.68359375 79.39453125 C-0.66299422 77.10096386 -0.64199702 74.80740001 -0.62062073 72.51383972 C-0.56570959 66.50852342 -0.51616515 60.50317464 -0.46777344 54.49780273 C-0.41733084 48.35723008 -0.36176416 42.21670398 -0.30664062 36.07617188 C-0.19943832 24.05082111 -0.09791083 12.02542975 0 0 Z " fill="#FF6F00" transform="translate(1748,1413)"/>
<path d="M0 0 C5.50563537 4.5891768 10.60526063 9.46614859 15.66233826 14.54208374 C16.50953102 15.38842208 17.35672378 16.23476041 18.22958905 17.10674536 C20.56431338 19.44011372 22.89678795 21.77568937 25.22831523 24.11224961 C27.74923259 26.637504 30.27305848 29.15984864 32.79652405 31.68255615 C37.16280899 36.04831792 41.52726598 40.41590015 45.8904705 44.78474045 C52.19885777 51.10127066 58.51001964 57.41502267 64.8218521 63.72811003 C75.06345029 73.97189435 85.30281546 84.2179077 95.54077148 94.46533203 C105.48328151 104.41702753 115.42684609 114.36766739 125.37182617 124.31689453 C125.9853082 124.93063928 126.59879022 125.54438403 127.23086261 126.1767271 C130.30866962 129.25583919 133.38649733 132.3349306 136.46433532 135.41401172 C161.97943275 160.93946809 187.4909042 186.46854591 213 212 C210.82959502 215.2654942 208.665349 218.5175197 206.3359375 221.671875 C176.9724593 261.95368805 159.10657255 311.65415409 158.79467773 361.70385742 C158.78477814 362.71008148 158.77487854 363.71630554 158.76467896 364.75302124 C158.73341022 368.03714752 158.70844537 371.3212882 158.68359375 374.60546875 C158.66299422 376.89903614 158.64199702 379.19259999 158.62062073 381.48616028 C158.56570959 387.49147658 158.51616515 393.49682536 158.46777344 399.50219727 C158.41733084 405.64276992 158.36176416 411.78329602 158.30664062 417.92382812 C158.19943832 429.94917889 158.09791083 441.97457025 158 454 C151.73192882 448.81615098 145.99795481 443.15791096 140.24291992 437.41700745 C139.15978874 436.34004811 138.07645557 435.26329191 136.992939 434.18672031 C134.02875945 431.24023853 131.06767459 428.29066415 128.10716128 425.34049928 C125.56474309 422.80775459 123.02051714 420.27682965 120.47629267 417.74589963 C111.37454094 408.6915742 102.28010573 399.62991518 93.1875 390.56640625 C92.47003664 389.85125047 91.75257328 389.13609469 91.01336861 388.39926752 C76.76557598 374.19689848 62.52124428 359.99106069 48.28274536 345.77937412 C45.15713365 342.65975125 42.03147353 339.54017688 38.90576172 336.4206543 C38.12890746 335.64533302 37.35205321 334.87001175 36.55165792 334.07119589 C23.94438344 321.48967917 11.32160454 308.92383316 -1.30731285 296.36404503 C-14.27345949 283.46829002 -27.22451711 270.55753226 -40.16117954 257.63219875 C-47.42511387 250.37543272 -54.69573819 243.12564682 -61.98355103 235.89285469 C-68.18408257 229.73910411 -74.37104685 223.57212015 -80.54040927 217.38711495 C-83.68972642 214.23066787 -86.84526221 211.08115526 -90.01843071 207.94867134 C-92.9208716 205.08315245 -95.80438827 202.19993123 -98.67371404 199.3012644 C-99.7169553 198.25393384 -100.76705868 197.21338683 -101.82442534 196.1803189 C-103.25677242 194.77894513 -104.66244514 193.35045983 -106.06646729 191.92070866 C-106.85590855 191.13376309 -107.64534981 190.34681751 -108.45871353 189.53602511 C-110.5974688 186.01692781 -109.93161151 183.91731605 -109 180 C-108.39497782 178.06035562 -107.72265566 176.1405505 -106.98828125 174.24609375 C-106.56772461 173.16005859 -106.14716797 172.07402344 -105.71386719 170.95507812 C-105.25141602 169.79427734 -104.78896484 168.63347656 -104.3125 167.4375 C-103.82555664 166.21095703 -103.33861328 164.98441406 -102.83691406 163.72070312 C-86.38929509 122.71853535 -65.01598666 83.70821698 -39 48 C-38.57138672 47.41089844 -38.14277344 46.82179687 -37.70117188 46.21484375 C-35.18294654 42.77147138 -32.60739913 39.37618821 -30 36 C-29.37279053 35.18571533 -29.37279053 35.18571533 -28.73291016 34.35498047 C-19.5970336 22.51933741 -10.01420356 11.1045753 0 0 Z " fill="#FF2404" transform="translate(142,181)"/>
<path d="M0 0 C2.32659227 1.82864761 2.32659227 1.82864761 4.76945972 4.2744751 C5.70599819 5.20243267 6.64253666 6.13039024 7.60745507 7.08646774 C8.63837081 8.12810473 9.6690995 9.16992686 10.69966125 10.21191406 C11.80032211 11.3101152 12.90185944 12.4074385 14.00419778 13.50395584 C17.03477582 16.52362878 20.05271008 19.55567091 23.06876338 22.58984184 C26.32189368 25.85816295 29.5865303 29.1149544 32.84977722 32.37316895 C39.24152234 38.7586814 45.62259077 45.15476251 52.00023637 51.55435371 C59.42091784 58.99968977 66.8524423 66.43416288 74.28455951 73.86808062 C87.53929656 87.12669615 100.78470684 100.39458966 114.0246582 113.66796875 C126.88620316 126.56195972 139.75334024 139.4503328 152.62719727 152.33203125 C153.42042447 153.12574395 154.21365168 153.91945664 155.03091607 154.73722124 C158.21888006 157.92711373 161.40685224 161.11699804 164.59484275 164.30686402 C176.845501 176.56504575 189.09210402 188.82727844 201.33784968 201.09036756 C205.04217847 204.79993892 208.7466621 208.50935536 212.45151925 212.21839905 C220.24306786 220.01885436 228.03319379 227.82071996 235.81873045 235.62717628 C239.03973985 238.85680735 242.26151949 242.08565953 245.48543167 245.31239319 C248.43143222 248.26104773 251.37512137 251.21198869 254.31690159 254.16485357 C255.38653352 255.23770889 256.45702197 256.30971101 257.52841047 257.38081217 C258.97448221 258.82675995 260.41722203 260.27603772 261.85974598 261.7255249 C262.66508048 262.53264797 263.47041498 263.33977104 264.30015355 264.17135239 C266 266 266 266 266 267 C264.76512344 267.00586624 263.53024689 267.01173248 262.25794983 267.01777649 C250.50741637 267.07548261 238.75705954 267.14848411 227.00670719 267.23571491 C220.96859687 267.28006847 214.93054864 267.31939722 208.89233398 267.34643555 C203.04364952 267.37282354 197.1952087 267.41346333 191.34667778 267.46318626 C189.13729365 267.47961902 186.92786763 267.49127756 184.71843147 267.49761391 C161.31408895 267.57139145 138.65801921 270.03892427 116 276 C114.73446289 276.33040283 114.73446289 276.33040283 113.44335938 276.66748047 C80.98177797 285.3234831 51.47948984 301.58564471 25 322 C19.49436463 317.4108232 14.39473937 312.53385141 9.33766174 307.45791626 C8.49046898 306.61157792 7.64327622 305.76523959 6.77041095 304.89325464 C4.43568662 302.55988628 2.10321205 300.22431063 -0.22831523 297.88775039 C-2.74923259 295.362496 -5.27305848 292.84015136 -7.79652405 290.31744385 C-12.16280899 285.95168208 -16.52726598 281.58409985 -20.8904705 277.21525955 C-27.19885777 270.89872934 -33.51001964 264.58497733 -39.8218521 258.27188997 C-50.06345029 248.02810565 -60.30281546 237.7820923 -70.54077148 227.53466797 C-80.48328151 217.58297247 -90.42684609 207.63233261 -100.37182617 197.68310547 C-100.9853082 197.06936072 -101.59879022 196.45561597 -102.23086261 195.8232729 C-105.30866962 192.74416081 -108.38649733 189.6650694 -111.46433532 186.58598828 C-136.97943275 161.06053191 -162.4909042 135.53145409 -188 110 C-187.05262321 108.87737417 -186.10275809 107.75684793 -185.15185547 106.63720703 C-184.62316864 106.01298859 -184.09448181 105.38877014 -183.54977417 104.74563599 C-181.58315998 102.53047937 -179.44889871 100.70887534 -177.125 98.875 C-176.16851562 98.11316406 -175.21203125 97.35132813 -174.2265625 96.56640625 C-173.70868164 96.15664551 -173.19080078 95.74688477 -172.65722656 95.32470703 C-170.88838994 93.9107843 -169.14215072 92.4721215 -167.3984375 91.02734375 C-142.12500617 70.13528484 -28.87702385 -9.17721552 0 0 Z " fill="#FF2404" transform="translate(369,33)"/>
<path d="M0 0 C4.21917804 1.68767121 5.82348061 2.50296486 9 5.3125 C47.46491536 36.72172083 101.29387165 53.89484259 150.61206055 54.20532227 C151.60853104 54.21522186 152.60500153 54.22512146 153.63166809 54.23532104 C156.88332854 54.2665849 160.13500354 54.29155264 163.38671875 54.31640625 C165.65786593 54.33700621 167.92900953 54.35800342 170.20014954 54.37937927 C176.14628182 54.43428603 182.09244688 54.48383235 188.03863525 54.53222656 C194.11888508 54.58267241 200.19908796 54.63823737 206.27929688 54.69335938 C218.1861577 54.8005563 230.09305948 54.90208494 242 55 C236.81610064 61.26494637 231.16388262 67.00446074 225.4304657 72.7638092 C224.35493791 73.84765958 223.2796069 74.93170524 222.20445472 76.01592821 C219.26184102 78.98204077 216.31613592 81.94506587 213.36981738 84.90749776 C210.84033976 87.45156701 208.31265051 89.99740959 205.78492602 92.54322053 C181.84896312 116.64964944 157.87011334 140.71354932 133.88299847 164.76906681 C130.76542505 167.89568831 127.64793262 171.02239052 124.53051758 174.14916992 C123.75572093 174.92628649 122.98092427 175.70340305 122.18264893 176.50406861 C109.61120666 189.11434681 97.06079992 201.74535727 84.51835062 214.38446564 C71.63943909 227.36180481 58.73988093 240.31833938 45.82037574 253.25526804 C38.56736454 260.51919598 31.32410198 267.79231664 24.1043148 275.08928108 C17.96125928 281.29798623 11.80011069 287.48797188 5.6141177 293.65391064 C2.45753455 296.80143987 -0.6893411 299.95732008 -3.81291771 303.13763618 C-6.67103192 306.04726395 -9.55322745 308.93050762 -12.45693781 311.79461294 C-13.50424819 312.83656614 -14.54226746 313.88795722 -15.56991474 314.94930852 C-23.26515287 322.88175064 -23.26515287 322.88175064 -27.56921899 323.17512119 C-29.90713371 322.68384689 -31.83973717 322.00584209 -34 321 C-35.00844971 320.6599292 -36.01689941 320.3198584 -37.0559082 319.96948242 C-37.96171631 319.60185791 -38.86752441 319.2342334 -39.80078125 318.85546875 C-41.36783813 318.2217334 -41.36783813 318.2217334 -42.96655273 317.57519531 C-44.07071533 317.11725586 -45.17487793 316.65931641 -46.3125 316.1875 C-47.48820557 315.70249023 -48.66391113 315.21748047 -49.87524414 314.71777344 C-89.8911145 298.03276718 -127.93998339 277.57002962 -163 252 C-164.06202637 251.2272876 -164.06202637 251.2272876 -165.14550781 250.43896484 C-175.37222398 242.96448787 -185.2563811 235.09146107 -195 227 C-196.00450195 226.17024658 -196.00450195 226.17024658 -197.02929688 225.32373047 C-198.98515296 223.70347506 -200.93165185 222.07272552 -202.875 220.4375 C-203.4642627 219.94894531 -204.05352539 219.46039062 -204.66064453 218.95703125 C-207.69466618 216.37626558 -209.17640052 214.64719897 -211 211 C-141.37 141.37 -71.74 71.74 0 0 Z " fill="#FF4E02" transform="translate(392,1693)"/>
<path d="M0 0 C9.27440654 4.32181754 16.00017639 15.37686706 22.15625 23.34765625 C24.03828383 25.78143274 25.95297522 28.18163069 27.90625 30.55859375 C35.32565951 39.60605611 42.004567 49.03456041 48.50097656 58.76318359 C49.84919285 60.77496822 51.21306826 62.7745304 52.5859375 64.76953125 C74.40517744 96.6517854 92.14553295 131.59035139 106.3125 167.5 C106.77479004 168.66885742 107.23708008 169.83771484 107.71337891 171.04199219 C111.72096854 181.42089724 111.72096854 181.42089724 112 186 C110.41333735 188.45720279 110.41333735 188.45720279 107.95600319 190.90812492 C107.50666086 191.36584376 107.05731852 191.8235626 106.59435976 192.29515171 C105.07598439 193.83314533 103.5338018 195.34479545 101.9906311 196.85787964 C100.88938798 197.96288961 99.78968266 199.06943395 98.69139326 200.17737973 C95.66245 203.22396275 92.61202671 206.24821951 89.55774641 209.26937199 C86.27034513 212.52866494 83.0031234 215.80807486 79.7334137 219.08509827 C73.32294284 225.50358447 66.89409786 231.90336124 60.4591632 238.29731016 C52.97350444 245.73690267 45.50717256 253.19576471 38.04190032 260.65580477 C24.72700946 273.96024662 11.39618652 287.24860703 -1.94433594 300.52734375 C-14.90400671 313.42704745 -27.85490362 326.33546428 -40.79492188 339.25488281 C-41.59214701 340.05083429 -42.38937215 340.84678577 -43.21075563 341.66685699 C-46.41473212 344.86576852 -49.61866998 348.06471875 -52.82255109 351.26372581 C-67.36367062 365.78239976 -81.91153313 380.29431651 -96.4609375 394.8046875 C-97.20158791 395.54339071 -97.94223833 396.28209392 -98.7053327 397.04318208 C-107.95280928 406.26621668 -117.20334821 415.48615947 -126.45941353 424.70057487 C-129.04341842 427.27311119 -131.62627117 429.84679559 -134.20810127 432.42151451 C-137.17161289 435.37675776 -140.13743431 438.32966139 -143.10521121 441.28062107 C-144.18350384 442.35359216 -145.26094917 443.42741552 -146.33749978 444.50213443 C-147.79081525 445.95269648 -149.24746328 447.39991744 -150.70432091 448.84692192 C-151.92118837 450.0586672 -151.92118837 450.0586672 -153.16263902 451.29489219 C-155 453 -155 453 -156 453 C-156.00586624 451.77765152 -156.01173248 450.55530304 -156.01777649 449.2959137 C-156.07548915 437.66310829 -156.14849375 426.03048119 -156.23571491 414.39785862 C-156.28006361 408.42028261 -156.31939329 402.44276923 -156.34643555 396.46508789 C-156.37282858 390.67475688 -156.4134715 384.88467178 -156.46318626 379.09449577 C-156.47961573 376.90744063 -156.49127624 374.72034322 -156.49761391 372.53323555 C-156.57194634 349.19541044 -159.05610885 326.59270068 -165 304 C-165.33040283 302.73446289 -165.33040283 302.73446289 -165.66748047 301.44335938 C-174.3234831 268.98177797 -190.58564471 239.47948984 -211 213 C-209.59648519 209.82618405 -207.93930291 207.6902738 -205.48987389 205.24377823 C-204.39185623 204.13978742 -204.39185623 204.13978742 -203.27165639 203.01349378 C-202.06058263 201.81115853 -202.06058263 201.81115853 -200.82504272 200.58453369 C-199.96987143 199.72765355 -199.11470014 198.87077341 -198.23361456 197.9879272 C-195.85879645 195.61038218 -193.47956751 193.23741233 -191.0983839 190.86625266 C-188.5317255 188.30822429 -185.97084238 185.74442579 -183.40925598 183.18132019 C-178.97029904 178.74131412 -174.52769243 174.30498709 -170.08259201 169.8711319 C-163.6557153 163.46050335 -157.2343627 157.0443649 -150.81434865 150.62686452 C-140.39836936 140.2152634 -129.97793077 129.80813724 -119.5546875 119.40380859 C-109.42897363 109.29645035 -99.30536066 99.18699544 -89.18457031 89.07470703 C-88.56081368 88.45147585 -87.93705705 87.82824467 -87.29439871 87.18612769 C-84.16523471 84.05957375 -81.036112 80.93297847 -77.90700984 77.80636263 C-51.94440741 51.86449651 -25.9745676 25.92988558 0 0 Z " fill="#FF4E02" transform="translate(1904,181)"/>
<path d="M0 0 C3.4352546 1.30632009 5.65306361 2.32525107 8.125 5.0625 C12.21019716 9.32227824 16.71103955 12.93150072 21.30712891 16.62353516 C23.17276623 18.14047534 25.01499833 19.68309856 26.85546875 21.23046875 C65.47528702 53.62202001 109.53582948 79.53607286 154.93408203 101.15234375 C155.58129715 101.46105911 156.22851227 101.76977448 156.89533997 102.08784485 C158.66053531 102.92855709 160.42750106 103.76554919 162.19458008 104.60229492 C165 106 165 106 168 108 C77.25 108 -13.5 108 -107 108 C-103.50538252 103.92294628 -100.20674583 100.08179976 -96.44412231 96.3238678 C-95.58604477 95.46441559 -94.72796722 94.60496338 -93.84388733 93.71946716 C-92.92103439 92.8002095 -91.99818146 91.88095184 -91.04736328 90.93383789 C-90.051202 89.93795919 -89.05526186 88.94185924 -88.05952454 87.94555664 C-85.37418267 85.25992954 -82.68578337 82.57738251 -79.99679804 79.8954041 C-77.18029848 77.08518386 -74.36665747 74.27210448 -71.55270386 71.45933533 C-66.23188962 66.14162096 -60.90853291 60.82645942 -55.58424366 55.51222461 C-49.5193571 49.45854106 -43.45733223 43.40199531 -37.39553857 37.34521496 C-24.93352642 24.89363674 -12.46794942 12.445633 0 0 Z " fill="#FF4D02" transform="translate(145,1940)"/>
<path d="M0 0 C0 90.75 0 181.5 0 275 C-2.32689321 271.50966019 -4.06181177 267.83216417 -5.859375 264.0546875 C-6.64562677 262.41584163 -7.43243318 260.77726176 -8.21972656 259.13891602 C-8.63226685 258.27968536 -9.04480713 257.42045471 -9.46984863 256.53518677 C-24.34797011 225.61807579 -41.10752533 196.00248357 -61 168 C-61.50208984 167.28682617 -62.00417969 166.57365234 -62.52148438 165.83886719 C-69.82180275 155.4810354 -77.46262208 145.49848068 -85.55566406 135.74853516 C-87.60373517 133.26910898 -89.60993691 130.75627954 -91.625 128.25 C-95.36512822 123.6547867 -99.33590553 119.30948533 -103.45947266 115.05761719 C-107.80815423 110.46568565 -107.80815423 110.46568565 -108 107 C-106.45478249 104.83675003 -106.45478249 104.83675003 -104.06484985 102.45684814 C-103.16735519 101.551035 -102.26986053 100.64522186 -101.34516907 99.71195984 C-100.33272164 98.71561439 -99.32003341 97.71951359 -98.30712891 96.72363281 C-97.25365777 95.66993508 -96.20127902 94.61514422 -95.1499176 93.55934143 C-92.28712116 90.69082525 -89.40904347 87.83809646 -86.52791262 84.98801136 C-83.5208488 82.00843114 -80.5275002 79.01513581 -77.53256226 76.02337646 C-72.50158031 71.00160578 -67.4615193 65.98910405 -62.41503906 60.98291016 C-55.28831518 53.91302584 -48.17890537 46.82592307 -41.07248425 39.73564005 C-36.15999527 34.83559107 -31.24338939 29.93967362 -26.32600355 25.04453945 C-25.13079983 23.85470436 -23.93571218 22.66475265 -22.74073839 21.47468662 C-19.33570573 18.08392424 -15.92814732 14.69574275 -12.51635551 11.31178093 C-11.48065709 10.28382924 -10.44580306 9.25502604 -9.41183281 8.22533607 C-8.00659683 6.82627975 -6.59795907 5.43064266 -5.18911743 4.03521729 C-4.39968561 3.25135777 -3.61025379 2.46749825 -2.7968998 1.65988541 C-1 0 -1 0 0 0 Z " fill="#FF4D02" transform="translate(2048,38)"/>
<path d="M0 0 C4.07705372 3.49461748 7.91820024 6.79325417 11.6761322 10.55587769 C12.53558441 11.41395523 13.39503662 12.27203278 14.28053284 13.15611267 C15.1997905 14.07896561 16.11904816 15.00181854 17.06616211 15.95263672 C18.06204081 16.948798 19.05814076 17.94473814 20.05444336 18.94047546 C22.74007046 21.62581733 25.42261749 24.31421663 28.1045959 27.00320196 C30.91481614 29.81970152 33.72789552 32.63334253 36.54066467 35.44729614 C41.85837904 40.76811038 47.17354058 46.09146709 52.48777539 51.41575634 C58.54145894 57.4806429 64.59800469 63.54266777 70.65478504 69.60446143 C83.10636326 82.06647358 95.554367 94.53205058 108 107 C105.59843303 111.15686074 102.81636656 114.49299027 99.5 117.9375 C93.70666425 124.08504426 88.48419107 130.55072472 83.35009766 137.25146484 C82.02412206 138.96875909 80.67877996 140.66847247 79.32421875 142.36328125 C50.12660136 178.9278778 26.45809848 219.53182522 6.44116211 261.74707031 C5.88823486 262.91206055 5.33530762 264.07705078 4.765625 265.27734375 C4.03520996 266.82796509 4.03520996 266.82796509 3.29003906 268.40991211 C2 271 2 271 0 274 C0 183.58 0 93.16 0 0 Z " fill="#FF1A04" transform="translate(0,39)"/>
<path d="M0 0 C90.42 0 180.84 0 274 0 C270.48840726 2.34106183 266.78468178 4.08532854 262.984375 5.89453125 C261.33504033 6.68609218 259.68596179 7.47818696 258.03710938 8.27075195 C257.1736792 8.68539703 256.31024902 9.10004211 255.4206543 9.5272522 C239.59978501 17.14101842 224.07709744 24.98335926 209 34 C208.05318359 34.55993652 207.10636719 35.11987305 206.13085938 35.69677734 C192.72957848 43.63360855 179.71809021 52.01113101 167 61 C166.23848633 61.5347998 165.47697266 62.06959961 164.69238281 62.62060547 C154.37835114 69.87967765 144.45247025 77.50081351 134.74853516 85.55566406 C132.26910898 87.60373517 129.75627954 89.60993691 127.25 91.625 C122.64186971 95.38132439 118.27044021 99.35773906 113.96972656 103.45947266 C111.63567467 105.65487584 110.08473593 106.97175469 107 108 C93.04590601 94.06923142 79.09464971 80.13562712 65.14679718 66.19860935 C58.6709965 59.72797239 52.19425863 53.25827866 45.71533203 46.79077148 C40.07053265 41.15591663 34.42747327 35.51932614 28.7865262 29.8806147 C25.79762247 26.89301847 22.80783459 23.90631892 19.81596375 20.9216938 C17.00347628 18.11596291 14.19331045 15.30792816 11.38495445 12.49806213 C10.35057023 11.4639544 9.31532033 10.43071177 8.27916908 9.39837456 C6.87120188 7.99533889 5.46656479 6.58896369 4.06213379 5.18238831 C3.27307899 4.3942553 2.4840242 3.6061223 1.67105865 2.79410648 C0 1 0 1 0 0 Z " fill="#FF1A04" transform="translate(39,0)"/>
<path d="M0 0 C6.02512106 4.99273724 11.54142905 10.3998689 17.06616211 15.93676758 C18.06204971 16.93129778 19.0581494 17.92561564 20.05444336 18.91973877 C22.74015913 21.60092408 25.42273669 24.28522822 28.1045959 26.9702704 C30.91511699 29.78333361 33.72808875 32.59394455 36.54066467 35.404953 C41.25555251 40.11802635 45.96833814 44.83319405 50.67993164 49.54956055 C56.133044 55.0081331 61.58977505 60.46306833 67.04836267 65.91616517 C71.73820155 70.60147495 76.42610014 75.28871939 81.11236387 79.97760504 C83.91026353 82.77706617 86.70884042 85.57584129 89.50916862 88.37287331 C92.13554009 90.99636839 94.75947674 93.62227404 97.38150787 96.25010681 C98.80872418 97.67928716 100.23841902 99.10599101 101.66816711 100.53263855 C102.50788055 101.37517181 103.34759399 102.21770508 104.2127533 103.08576965 C105.3163288 104.18991069 105.3163288 104.18991069 106.44219875 105.31635761 C108 107 108 107 108 108 C17.58 108 -72.84 108 -166 108 C-162.50966019 105.67310679 -158.83216417 103.93818823 -155.0546875 102.140625 C-153.41584163 101.35437323 -151.77726176 100.56756682 -150.13891602 99.78027344 C-149.27968536 99.36773315 -148.42045471 98.95519287 -147.53518677 98.53015137 C-116.61807579 83.65202989 -87.00248357 66.89247467 -59 47 C-58.28682617 46.49791016 -57.57365234 45.99582031 -56.83886719 45.47851562 C-46.4810354 38.17819725 -36.49848068 30.53737792 -26.74853516 22.44433594 C-24.26910898 20.39626483 -21.75627954 18.39006309 -19.25 16.375 C-14.62895471 12.60243192 -10.23081059 8.62059176 -5.88183594 4.54052734 C-2.19826342 1.09913171 -2.19826342 1.09913171 0 0 Z " fill="#FF7900" transform="translate(1901,1940)"/>
<path d="M0 0 C0.33 0 0.66 0 1 0 C1 90.42 1 180.84 1 274 C-3.07705372 270.50538252 -6.91820024 267.20674583 -10.6761322 263.44412231 C-11.53558441 262.58604477 -12.39503662 261.72796722 -13.28053284 260.84388733 C-14.1997905 259.92103439 -15.11904816 258.99818146 -16.06616211 258.04736328 C-17.06204081 257.051202 -18.05814076 256.05526186 -19.05444336 255.05952454 C-21.74007046 252.37418267 -24.42261749 249.68578337 -27.1045959 246.99679804 C-29.91481614 244.18029848 -32.72789552 241.36665747 -35.54066467 238.55270386 C-40.85837904 233.23188962 -46.17354058 227.90853291 -51.48777539 222.58424366 C-57.54145894 216.5193571 -63.59800469 210.45733223 -69.65478504 204.39553857 C-82.10636326 191.93352642 -94.554367 179.46794942 -107 167 C-104.5984347 162.84314216 -101.81637326 159.50699624 -98.5 156.0625 C-92.71906082 149.92859339 -87.52933649 143.4694981 -82.39746094 136.79150391 C-80.99098804 134.98844694 -79.55346505 133.21584566 -78.1015625 131.44921875 C-70.70998957 122.44012977 -64.05483383 113.05498876 -57.58496094 103.36572266 C-56.08291743 101.12376307 -54.56406597 98.89435158 -53.0390625 96.66796875 C-33.10121183 67.40774447 -11.29436856 33.88310569 0 0 Z " fill="#FF7900" transform="translate(2047,1735)"/>
<path d="M0 0 C2.34106183 3.51159274 4.08532854 7.21531822 5.89453125 11.015625 C6.68609218 12.66495967 7.47818696 14.31403821 8.27075195 15.96289062 C8.68539703 16.8263208 9.10004211 17.68975098 9.5272522 18.5793457 C17.14101842 34.40021499 24.98335926 49.92290256 34 65 C34.55993652 65.94681641 35.11987305 66.89363281 35.69677734 67.86914062 C43.63360855 81.27042152 52.01113101 94.28190979 61 107 C61.5347998 107.76151367 62.06959961 108.52302734 62.62060547 109.30761719 C69.87967765 119.62164886 77.50081351 129.54752975 85.55566406 139.25146484 C87.60373517 141.73089102 89.60993691 144.24372046 91.625 146.75 C93.99590137 149.6738168 96.42868769 152.48226701 99.03125 155.19921875 C99.54478027 155.73901367 100.05831055 156.27880859 100.58740234 156.83496094 C101.59189723 157.8818813 102.60750103 158.91828505 103.63525391 159.94238281 C105.0078125 161.37109375 105.0078125 161.37109375 107 164 C106.75396805 167.88911013 104.56606499 169.80649131 101.90026855 172.46722412 C101.01685287 173.35620895 100.13343719 174.24519379 99.22325134 175.16111755 C98.23686695 176.13847961 97.2503355 177.11569328 96.26367188 178.09277344 C95.23003976 179.1271964 94.19706088 180.16227245 93.16468811 181.19795227 C90.35957339 184.00820286 87.54521247 186.80902414 84.72898293 189.60813046 C81.78687213 192.53521777 78.85285525 195.47039651 75.91784668 198.40460205 C70.98978606 203.32896994 66.05612156 208.24766428 61.11865234 213.16259766 C54.77233063 219.48001289 48.43533038 225.80669357 42.10121918 232.13634872 C36.66416796 237.56942648 31.22285929 242.9982345 25.78086281 248.42635822 C24.0270672 250.17604801 22.27386368 251.92632945 20.52073669 253.67668915 C17.77193805 256.42060879 15.02050627 259.16186099 12.26696587 261.90102196 C11.25383324 262.90961724 10.24155313 263.91906966 9.23016548 264.92941475 C7.85567281 266.30217219 6.47780328 267.67154607 5.09973145 269.04071045 C4.32764595 269.80982128 3.55556046 270.57893211 2.76007843 271.37134933 C1 273 1 273 0 273 C0 182.91 0 92.82 0 0 Z " fill="#FF4602" transform="translate(0,1735)"/>
<path d="M0 0 C90.09 0 180.18 0 273 0 C269.528715 4.0498325 266.23336587 7.89197637 262.50900269 11.64489746 C261.24317856 12.92362228 261.24317856 12.92362228 259.95178223 14.22817993 C259.04456421 15.1396579 258.13734619 16.05113586 257.20263672 16.99023438 C256.22286072 17.97792805 255.24326154 18.96579715 254.26382446 19.9538269 C251.07281262 23.17082141 247.87655666 26.38257766 244.6796875 29.59375 C243.57588237 30.70292072 242.47208322 31.81209739 241.36828995 32.92127991 C236.78081926 37.53032588 232.19193281 42.13795448 227.59931755 46.74187469 C221.02696422 53.33051938 214.46329341 59.92755405 207.91122234 66.53637075 C203.29474511 71.19146343 198.66880207 75.83701167 194.03562748 80.47548532 C191.27053753 83.24423427 188.50981687 86.01703873 185.75912094 88.8000946 C183.17781319 91.41134252 180.58503991 94.01061869 177.98281479 96.601017 C176.57251259 98.01099139 175.17466337 99.43338692 173.77716064 100.85604858 C172.93891754 101.68597321 172.10067444 102.51589783 171.23703003 103.37097168 C170.51107573 104.10023613 169.78512142 104.82950058 169.0371685 105.58086395 C167 107 167 107 164.83113289 106.80884552 C162.65240142 105.84645923 161.5345589 104.76452543 159.9375 103 C155.81407113 98.70258679 151.28470196 95.04396562 146.64111328 91.32470703 C144.88333062 89.90582445 143.14200337 88.46838101 141.40234375 87.02734375 C102.11761291 54.57713466 58.22541178 28.23964384 12.25292969 6.44116211 C11.08793945 5.88823486 9.92294922 5.33530762 8.72265625 4.765625 C7.68890869 4.27868164 6.65516113 3.79173828 5.59008789 3.29003906 C3 2 3 2 0 0 Z " fill="#FF4602" transform="translate(1735,0)"/>
</svg>
