# Blender 3.4.1
# www.blender.org
mtllib note.mtl
o squircle
v -0.999656 -0.499860 -0.124968
v 0.999719 0.499942 -0.124968
v 0.999719 -0.499860 -0.124968
v 0.987152 -0.611139 -0.124968
v 0.791784 -0.490377 -0.124968
v 0.762079 -0.575150 -0.124968
v 0.950592 -0.716706 -0.124968
v -0.791721 -0.490377 -0.124968
v -0.762016 -0.575150 -0.124968
v -0.987088 -0.611139 -0.124968
v -0.950528 -0.716706 -0.124968
v -0.715173 -0.651127 -0.124968
v -0.891118 -0.811534 -0.124968
v -0.651193 -0.714650 -0.124968
v -0.811143 -0.890595 -0.124968
v -0.716316 -0.950233 -0.124968
v -0.574646 -0.762406 -0.124968
v 0.891182 -0.811534 -0.124968
v 0.811207 -0.890595 -0.124968
v 0.714094 -0.651127 -0.124968
v 0.651257 -0.714650 -0.124968
v 0.716379 -0.950233 -0.124968
v 0.574709 -0.762406 -0.124968
v 0.611269 -0.987136 -0.124968
v 0.490164 -0.792111 -0.124968
v 0.500447 -0.999703 -0.124968
v -0.500383 -0.999703 -0.124968
v -0.611206 -0.987136 -0.124968
v -0.490101 -0.792111 -0.124968
v 0.791784 0.490345 -0.124968
v 0.762079 0.575119 -0.124968
v 0.987152 0.611107 -0.124968
v 0.950592 0.716789 -0.124968
v 0.714094 0.651209 -0.124968
v 0.891182 0.811502 -0.124968
v 0.651257 0.714618 -0.124968
v 0.811207 0.890677 -0.124968
v 0.716379 0.950201 -0.124968
v 0.574709 0.762374 -0.124968
v 0.611269 0.987218 -0.124968
v 0.490164 0.792079 -0.124968
v 0.500447 0.999672 -0.124968
v -0.500383 0.999672 -0.124968
v -0.490101 0.792079 -0.124968
v -0.611206 0.987218 -0.124968
v -0.574646 0.762374 -0.124968
v -0.716316 0.950201 -0.124968
v -0.651193 0.714618 -0.124968
v -0.811143 0.890677 -0.124968
v -0.999656 0.499942 -0.124968
v -0.791721 0.490345 -0.124968
v -0.715173 0.651209 -0.124968
v -0.891118 0.811502 -0.124968
v -0.987088 0.611107 -0.124968
v -0.950528 0.716789 -0.124968
v -0.762016 0.575119 -0.124968
v -0.400986 0.999672 -0.124968
v 0.401049 0.999672 -0.124968
v -0.999656 0.401116 -0.124968
v 0.999719 0.401116 -0.124968
v 0.999719 -0.401148 -0.124968
v -0.999656 -0.401148 -0.124968
v -0.400986 -0.999703 -0.124968
v 0.401049 -0.999703 -0.124968
v -0.999656 -0.499860 0.125082
v 0.999719 0.499942 0.125082
v 0.999719 -0.499860 0.125082
v 0.987152 -0.611139 0.125082
v 0.791784 -0.490377 0.125082
v 0.762079 -0.575150 0.125082
v 0.950592 -0.716706 0.125082
v -0.791721 -0.490377 0.125082
v -0.762016 -0.575150 0.125082
v -0.987088 -0.611139 0.125082
v -0.950528 -0.716706 0.125082
v -0.715173 -0.651127 0.125082
v -0.891118 -0.811534 0.125082
v -0.651193 -0.714650 0.125082
v -0.811143 -0.890595 0.125082
v -0.716316 -0.950233 0.125082
v -0.574646 -0.762406 0.125082
v 0.891182 -0.811534 0.125082
v 0.811207 -0.890595 0.125082
v 0.714094 -0.651127 0.125082
v 0.651257 -0.714650 0.125082
v 0.716379 -0.950233 0.125082
v 0.574709 -0.762406 0.125082
v 0.611269 -0.987136 0.125082
v 0.490164 -0.792111 0.125082
v 0.500447 -0.999703 0.125082
v -0.500383 -0.999703 0.125082
v -0.611206 -0.987136 0.125082
v -0.490101 -0.792111 0.125082
v 0.791784 0.490345 0.125082
v 0.762079 0.575119 0.125082
v 0.987152 0.611107 0.125082
v 0.950592 0.716789 0.125082
v 0.714094 0.651209 0.125082
v 0.891182 0.811502 0.125082
v 0.651257 0.714618 0.125082
v 0.811207 0.890677 0.125082
v 0.716379 0.950201 0.125082
v 0.574709 0.762374 0.125082
v 0.611269 0.987218 0.125082
v 0.490164 0.792079 0.125082
v 0.500447 0.999672 0.125082
v -0.500383 0.999672 0.125082
v -0.490101 0.792079 0.125082
v -0.611206 0.987218 0.125082
v -0.574646 0.762374 0.125082
v -0.716316 0.950201 0.125082
v -0.651193 0.714618 0.125082
v -0.811143 0.890677 0.125082
v -0.999656 0.499942 0.125082
v -0.791721 0.490345 0.125082
v -0.715173 0.651209 0.125082
v -0.891118 0.811502 0.125082
v -0.987088 0.611107 0.125082
v -0.950528 0.716789 0.125082
v -0.762016 0.575119 0.125082
v -0.400986 0.999672 0.125082
v 0.401049 0.999672 0.125082
v -0.999656 0.401116 0.125082
v 0.999719 0.401116 0.125082
v 0.999719 -0.401148 0.125082
v -0.999656 -0.401148 0.125082
v -0.400986 -0.999703 0.125082
v 0.401049 -0.999703 0.125082
vn -0.0000 -0.0000 -1.0000
vn -0.0000 -0.0000 1.0000
vn 0.8455 -0.5340 -0.0000
vn -0.0000 1.0000 -0.0000
vn -0.7109 0.7033 -0.0000
vn -0.9937 0.1122 -0.0000
vn -0.9437 0.3307 -0.0000
vn -0.0000 -1.0000 -0.0000
vn 0.3313 -0.9435 -0.0000
vn 1.0000 -0.0000 -0.0000
vn 0.3315 -0.9435 -0.0000
vn -0.3322 -0.9432 -0.0000
vn -1.0000 -0.0000 -0.0000
vn 0.5324 0.8465 -0.0000
vn -0.5316 -0.8470 -0.0000
vn 0.3313 0.9435 -0.0000
vn 0.8471 0.5314 -0.0000
vn 0.7035 0.7107 -0.0000
vn 0.7046 0.7096 -0.0000
vn -0.3315 -0.9435 -0.0000
vn -0.9449 -0.3273 -0.0000
vn -0.1117 -0.9937 -0.0000
vn 0.5293 0.8484 -0.0000
vn -0.8516 0.5242 -0.0000
vn 0.9937 -0.1123 -0.0000
vn -0.3315 0.9435 -0.0000
vn 0.9450 0.3269 -0.0000
vn -0.7103 -0.7039 -0.0000
vn 0.5293 -0.8484 -0.0000
vn -0.1117 0.9937 -0.0000
vn 0.9937 0.1123 -0.0000
vn 0.7030 -0.7112 -0.0000
vn -0.5293 -0.8484 -0.0000
vn -0.8458 -0.5334 -0.0000
vn 0.5324 -0.8465 -0.0000
vn 0.1127 0.9936 -0.0000
vn -0.8474 -0.5309 -0.0000
vn -0.7030 -0.7112 -0.0000
vn 0.8512 0.5248 -0.0000
vn -0.9937 -0.1122 -0.0000
vn -0.9437 -0.3307 -0.0000
vn 0.9437 -0.3307 -0.0000
vn -0.5316 0.8470 -0.0000
vn -0.3322 0.9432 -0.0000
vn -0.5293 0.8484 -0.0000
vn 0.1127 -0.9936 -0.0000
vn -0.7035 0.7107 -0.0000
vn 0.3315 0.9435 -0.0000
vn 0.9437 0.3307 -0.0000
vn -0.8471 0.5314 -0.0000
vn -0.8474 0.5309 -0.0000
vn 0.9450 -0.3269 -0.0000
vn -0.9449 0.3273 -0.0000
vn -0.7039 0.7103 -0.0000
vt 0.000000 0.000000
vt 0.000000 0.000000
vt 0.000000 0.000000
vt 0.000000 0.000000
vt 0.000000 0.000000
vt 0.000000 0.000000
vt 0.000000 0.000000
vt 0.000000 0.000000
vt 0.000000 0.000000
vt 0.000000 0.000000
vt 0.000000 0.000000
vt 0.000000 0.000000
vt 0.000000 0.000000
vt 0.000000 0.000000
vt 0.000000 0.000000
vt 0.000000 0.000000
vt 0.000000 0.000000
vt 0.000000 0.000000
vt 0.000000 0.000000
vt 0.000000 0.000000
vt 0.000000 0.000000
vt 0.000000 0.000000
vt 0.000000 0.000000
vt 0.000000 0.000000
vt 0.000000 0.000000
vt 0.000000 0.000000
vt 0.000000 0.000000
vt 0.000000 0.000000
vt 0.000000 0.000000
vt 0.000000 0.000000
vt 0.000000 0.000000
vt 0.000000 0.000000
vt 0.000000 0.000000
vt 0.000000 0.000000
vt 0.000000 0.000000
vt 0.000000 0.000000
vt 0.000000 0.000000
vt 0.000000 0.000000
vt 0.000000 0.000000
vt 0.000000 0.000000
vt 0.000000 0.000000
vt 0.000000 0.000000
vt 0.000000 0.000000
vt 0.000000 0.000000
vt 0.000000 0.000000
vt 0.000000 0.000000
vt 0.000000 0.000000
vt 0.000000 0.000000
vt 0.000000 0.000000
vt 0.000000 0.000000
vt 0.000000 0.000000
vt 0.000000 0.000000
vt 0.000000 0.000000
vt 0.000000 0.000000
vt 0.000000 0.000000
vt 0.000000 0.000000
vt 0.000000 0.000000
vt 0.000000 0.000000
vt 0.000000 0.000000
vt 0.000000 0.000000
vt 0.000000 0.000000
vt 0.000000 0.000000
vt 0.000000 0.000000
vt 0.000000 0.000000
vt 0.000000 0.000000
vt 0.000000 0.000000
vt 0.000000 0.000000
vt 0.000000 0.000000
vt 0.000000 0.000000
vt 0.000000 0.000000
vt 0.000000 0.000000
vt 0.000000 0.000000
vt 0.000000 0.000000
vt 0.000000 0.000000
vt 0.000000 0.000000
vt 0.000000 0.000000
vt 0.000000 0.000000
vt 0.000000 0.000000
vt 0.000000 0.000000
vt 0.000000 0.000000
vt 0.000000 0.000000
vt 0.000000 0.000000
vt 0.000000 0.000000
vt 0.000000 0.000000
vt 0.000000 0.000000
vt 0.000000 0.000000
vt 0.000000 0.000000
vt 0.000000 0.000000
vt 0.000000 0.000000
vt 0.000000 0.000000
vt 0.000000 0.000000
vt 0.000000 0.000000
vt 0.000000 0.000000
vt 0.000000 0.000000
vt 0.000000 0.000000
vt 0.000000 0.000000
vt 0.000000 0.000000
vt 0.000000 0.000000
vt 0.000000 0.000000
vt 0.000000 0.000000
vt 0.000000 0.000000
vt 0.000000 0.000000
vt 0.000000 0.000000
vt 0.000000 0.000000
vt 0.000000 0.000000
vt 0.000000 0.000000
vt 0.000000 0.000000
vt 0.000000 0.000000
vt 0.000000 0.000000
vt 0.000000 0.000000
vt 0.000000 0.000000
vt 0.000000 0.000000
vt 0.000000 0.000000
vt 0.000000 0.000000
vt 0.000000 0.000000
vt 0.000000 0.000000
vt 0.000000 0.000000
vt 0.000000 0.000000
vt 0.000000 0.000000
vt 0.000000 0.000000
vt 0.000000 0.000000
vt 0.000000 0.000000
vt 0.000000 0.000000
vt 0.000000 0.000000
vt 0.000000 0.000000
vt 0.000000 0.000000
vt 0.000000 0.000000
vt 0.000000 0.000000
s 0
usemtl Meshpart1Mtl
f 1/1/1 8/8/1 9/9/1
f 3/3/2 5/5/2 6/6/2
f 38/38/2 36/36/2 37/37/2
f 50/50/2 51/51/2 56/56/2
f 36/36/1 35/35/1 33/33/1
f 40/40/2 39/39/2 36/36/2
f 33/33/1 34/34/1 36/36/1
f 2/2/1 30/30/1 31/31/1
f 32/32/1 31/31/1 34/34/1
f 42/42/2 41/41/2 39/39/2
f 4/4/2 6/6/2 20/20/2
f 43/43/1 44/44/1 46/46/1
f 27/27/2 29/29/2 17/17/2
f 26/26/1 25/25/1 23/23/1
f 28/28/2 17/17/2 14/14/2
f 10/10/1 9/9/1 12/12/1
f 24/24/1 23/23/1 21/21/1
f 20/20/2 7/7/2 4/4/2
f 22/22/1 21/21/1 20/20/1
f 14/14/2 16/16/2 28/28/2
f 11/11/1 12/12/1 14/14/1
f 54/54/2 56/56/2 52/52/2
f 45/45/1 46/46/1 48/48/1
f 19/19/1 20/20/1 18/18/1
f 13/13/1 14/14/1 15/15/1
f 48/48/1 47/47/1 45/45/1
f 53/53/1 48/48/1 55/55/1
f 52/52/2 55/55/2 54/54/2
f 57/57/2 41/41/2 58/58/2
f 59/59/1 8/8/1 62/62/1
f 64/64/2 29/29/2 63/63/2
f 60/60/2 5/5/2 61/61/2
f 65/65/2 72/72/2 126/126/2
f 67/67/1 69/69/1 125/125/1
f 102/102/1 100/100/1 104/104/1
f 114/114/1 115/115/1 123/123/1
f 100/100/2 99/99/2 101/101/2
f 104/104/1 103/103/1 106/106/1
f 97/97/2 98/98/2 96/96/2
f 66/66/2 94/94/2 124/124/2
f 96/96/2 95/95/2 66/66/2
f 106/106/1 105/105/1 122/122/1
f 68/68/1 70/70/1 67/67/1
f 107/107/2 108/108/2 121/121/2
f 91/91/1 93/93/1 127/127/1
f 90/90/2 89/89/2 128/128/2
f 92/92/1 81/81/1 91/91/1
f 74/74/2 73/73/2 65/65/2
f 88/88/2 87/87/2 90/90/2
f 84/84/1 71/71/1 82/82/1
f 86/86/2 85/85/2 88/88/2
f 78/78/1 80/80/1 79/79/1
f 75/75/2 76/76/2 74/74/2
f 118/118/1 120/120/1 114/114/1
f 109/109/2 110/110/2 107/107/2
f 83/83/2 84/84/2 86/86/2
f 77/77/2 78/78/2 75/75/2
f 112/112/2 111/111/2 113/113/2
f 112/112/2 117/117/2 119/119/2
f 116/116/1 119/119/1 112/112/1
f 105/105/1 121/121/1 122/122/1
f 72/72/2 123/123/2 126/126/2
f 93/93/1 128/128/1 127/127/1
f 69/69/1 124/124/1 125/125/1
f 6/6/3 84/84/3 20/20/3
f 44/44/4 105/105/4 41/41/4
f 21/21/5 84/84/5 20/20/5
f 4/4/6 67/67/6 3/3/6
f 51/51/7 120/120/7 56/56/7
f 58/58/8 121/121/8 57/57/8
f 22/22/9 88/88/9 24/24/9
f 51/51/10 72/72/10 8/8/10
f 44/44/11 110/110/11 46/46/11
f 38/38/12 104/104/12 40/40/12
f 62/62/13 123/123/13 59/59/13
f 15/15/14 80/80/14 16/16/14
f 37/37/15 102/102/15 38/38/15
f 25/25/8 93/93/8 29/29/8
f 16/16/16 92/92/16 28/28/16
f 43/43/4 121/121/4 57/57/4
f 35/35/17 97/97/17 33/33/17
f 63/63/4 128/128/4 64/64/4
f 37/37/18 99/99/18 35/35/18
f 30/30/10 69/69/10 5/5/10
f 12/12/19 78/78/19 14/14/19
f 29/29/20 81/81/20 17/17/20
f 61/61/13 124/124/13 60/60/13
f 11/11/21 74/74/21 10/10/21
f 40/40/22 106/106/22 42/42/22
f 27/27/4 127/127/4 63/63/4
f 39/39/23 100/100/23 36/36/23
f 56/56/24 116/116/24 52/52/24
f 54/54/25 114/114/25 50/50/25
f 25/25/26 87/87/26 23/23/26
f 33/33/27 96/96/27 32/32/27
f 34/34/28 100/100/28 36/36/28
f 46/46/29 112/112/29 48/48/29
f 26/26/8 128/128/8 64/64/8
f 45/45/30 107/107/30 43/43/30
f 32/32/31 66/66/31 2/2/31
f 18/18/32 83/83/32 19/19/32
f 17/17/33 78/78/33 14/14/33
f 31/31/34 98/98/34 34/34/34
f 19/19/35 86/86/35 22/22/35
f 28/28/36 91/91/36 27/27/36
f 13/13/37 75/75/37 11/11/37
f 2/2/10 124/124/10 60/60/10
f 3/3/13 125/125/13 61/61/13
f 15/15/38 77/77/38 13/13/38
f 9/9/39 76/76/39 12/12/39
f 10/10/40 65/65/40 1/1/40
f 30/30/41 95/95/41 31/31/41
f 5/5/42 70/70/42 6/6/42
f 49/49/43 111/111/43 47/47/43
f 47/47/44 109/109/44 45/45/44
f 23/23/45 85/85/45 21/21/45
f 42/42/8 122/122/8 58/58/8
f 1/1/13 126/126/13 62/62/13
f 24/24/46 90/90/46 26/26/46
f 53/53/47 113/113/47 49/49/47
f 41/41/48 103/103/48 39/39/48
f 8/8/49 73/73/49 9/9/49
f 55/55/50 117/117/50 53/53/50
f 18/18/51 71/71/51 7/7/51
f 55/55/52 118/118/52 54/54/52
f 7/7/53 68/68/53 4/4/53
f 50/50/10 123/123/10 59/59/10
f 52/52/54 112/112/54 48/48/54
f 1/1/1 62/62/1 8/8/1
f 3/3/2 61/61/2 5/5/2
f 38/38/2 40/40/2 36/36/2
f 50/50/2 59/59/2 51/51/2
f 36/36/1 37/37/1 35/35/1
f 40/40/2 42/42/2 39/39/2
f 33/33/1 32/32/1 34/34/1
f 2/2/1 60/60/1 30/30/1
f 32/32/1 2/2/1 31/31/1
f 42/42/2 58/58/2 41/41/2
f 4/4/2 3/3/2 6/6/2
f 43/43/1 57/57/1 44/44/1
f 27/27/2 63/63/2 29/29/2
f 26/26/1 64/64/1 25/25/1
f 28/28/2 27/27/2 17/17/2
f 10/10/1 1/1/1 9/9/1
f 24/24/1 26/26/1 23/23/1
f 20/20/2 18/18/2 7/7/2
f 22/22/1 24/24/1 21/21/1
f 14/14/2 15/15/2 16/16/2
f 11/11/1 10/10/1 12/12/1
f 54/54/2 50/50/2 56/56/2
f 45/45/1 43/43/1 46/46/1
f 19/19/1 22/22/1 20/20/1
f 13/13/1 11/11/1 14/14/1
f 48/48/1 49/49/1 47/47/1
f 53/53/1 49/49/1 48/48/1
f 52/52/2 48/48/2 55/55/2
f 57/57/2 44/44/2 41/41/2
f 59/59/1 51/51/1 8/8/1
f 64/64/2 25/25/2 29/29/2
f 60/60/2 30/30/2 5/5/2
f 65/65/2 73/73/2 72/72/2
f 67/67/1 70/70/1 69/69/1
f 102/102/1 101/101/1 100/100/1
f 114/114/1 120/120/1 115/115/1
f 100/100/2 97/97/2 99/99/2
f 104/104/1 100/100/1 103/103/1
f 97/97/2 100/100/2 98/98/2
f 66/66/2 95/95/2 94/94/2
f 96/96/2 98/98/2 95/95/2
f 106/106/1 103/103/1 105/105/1
f 68/68/1 84/84/1 70/70/1
f 107/107/2 110/110/2 108/108/2
f 91/91/1 81/81/1 93/93/1
f 90/90/2 87/87/2 89/89/2
f 92/92/1 78/78/1 81/81/1
f 74/74/2 76/76/2 73/73/2
f 88/88/2 85/85/2 87/87/2
f 84/84/1 68/68/1 71/71/1
f 86/86/2 84/84/2 85/85/2
f 78/78/1 92/92/1 80/80/1
f 75/75/2 78/78/2 76/76/2
f 118/118/1 116/116/1 120/120/1
f 109/109/2 112/112/2 110/110/2
f 83/83/2 82/82/2 84/84/2
f 77/77/2 79/79/2 78/78/2
f 112/112/2 109/109/2 111/111/2
f 112/112/2 113/113/2 117/117/2
f 116/116/1 118/118/1 119/119/1
f 105/105/1 108/108/1 121/121/1
f 72/72/2 115/115/2 123/123/2
f 93/93/1 89/89/1 128/128/1
f 69/69/1 94/94/1 124/124/1
f 6/6/3 70/70/3 84/84/3
f 44/44/4 108/108/4 105/105/4
f 21/21/5 85/85/5 84/84/5
f 4/4/6 68/68/6 67/67/6
f 51/51/7 115/115/7 120/120/7
f 58/58/8 122/122/8 121/121/8
f 22/22/9 86/86/9 88/88/9
f 51/51/10 115/115/10 72/72/10
f 44/44/11 108/108/11 110/110/11
f 38/38/12 102/102/12 104/104/12
f 62/62/13 126/126/13 123/123/13
f 15/15/14 79/79/14 80/80/14
f 37/37/15 101/101/15 102/102/15
f 25/25/8 89/89/8 93/93/8
f 16/16/16 80/80/16 92/92/16
f 43/43/4 107/107/4 121/121/4
f 35/35/17 99/99/17 97/97/17
f 63/63/4 127/127/4 128/128/4
f 37/37/18 101/101/18 99/99/18
f 30/30/10 94/94/10 69/69/10
f 12/12/19 76/76/19 78/78/19
f 29/29/20 93/93/20 81/81/20
f 61/61/13 125/125/13 124/124/13
f 11/11/21 75/75/21 74/74/21
f 40/40/22 104/104/22 106/106/22
f 27/27/4 91/91/4 127/127/4
f 39/39/23 103/103/23 100/100/23
f 56/56/24 120/120/24 116/116/24
f 54/54/25 118/118/25 114/114/25
f 25/25/26 89/89/26 87/87/26
f 33/33/27 97/97/27 96/96/27
f 34/34/28 98/98/28 100/100/28
f 46/46/29 110/110/29 112/112/29
f 26/26/8 90/90/8 128/128/8
f 45/45/30 109/109/30 107/107/30
f 32/32/31 96/96/31 66/66/31
f 18/18/32 82/82/32 83/83/32
f 17/17/33 81/81/33 78/78/33
f 31/31/34 95/95/34 98/98/34
f 19/19/35 83/83/35 86/86/35
f 28/28/36 92/92/36 91/91/36
f 13/13/37 77/77/37 75/75/37
f 2/2/10 66/66/10 124/124/10
f 3/3/13 67/67/13 125/125/13
f 15/15/38 79/79/38 77/77/38
f 9/9/39 73/73/39 76/76/39
f 10/10/40 74/74/40 65/65/40
f 30/30/41 94/94/41 95/95/41
f 5/5/42 69/69/42 70/70/42
f 49/49/43 113/113/43 111/111/43
f 47/47/44 111/111/44 109/109/44
f 23/23/45 87/87/45 85/85/45
f 42/42/8 106/106/8 122/122/8
f 1/1/13 65/65/13 126/126/13
f 24/24/46 88/88/46 90/90/46
f 53/53/47 117/117/47 113/113/47
f 41/41/48 105/105/48 103/103/48
f 8/8/49 72/72/49 73/73/49
f 55/55/50 119/119/50 117/117/50
f 18/18/51 82/82/51 71/71/51
f 55/55/52 119/119/52 118/118/52
f 7/7/53 71/71/53 68/68/53
f 50/50/10 114/114/10 123/123/10
f 52/52/54 116/116/54 112/112/54
