# Blender 3.4.1
# www.blender.org
mtllib square.mtl
o Cube
v -0.375000 0.375000 0.000000
v -0.375000 -0.375000 -0.000000
v 0.375000 0.375000 0.000000
v 0.375000 -0.375000 -0.000000
v -0.500000 -0.500000 -0.000000
v 0.500000 -0.500000 -0.000000
v 0.500000 0.500000 0.000000
v -0.500000 0.500000 0.000000
vn -0.0000 -0.0000 1.0000
vt 0.595618 0.220618
vt 0.404382 0.220618
vt 0.595618 0.029382
vt 0.404382 0.029382
vt 0.375000 0.250000
vt 0.375000 0.000000
vt 0.625000 0.000000
vt 0.625000 0.250000
s 0
usemtl Material.002
f 4/4/1 2/2/1 5/5/1 6/6/1
f 3/3/1 4/4/1 6/6/1 7/7/1
f 2/2/1 1/1/1 8/8/1 5/5/1
f 1/1/1 3/3/1 7/7/1 8/8/1
